<?xml version="1.0" encoding="UTF-8"?>
<svg width="543px" height="350px" viewBox="0 0 543 350" version="1.1" xmlns="http://www.w3.org/2000/svg" xmlns:xlink="http://www.w3.org/1999/xlink">
    <!-- Generator: Sketch 51.3 (57544) - http://www.bohemiancoding.com/sketch -->
    <title>Artwork@2x</title>
    <desc>Created with Sketch.</desc>
    <defs>
        <linearGradient x1="50%" y1="100%" x2="75.1149712%" y2="-5.94915403%" id="linearGradient-1">
            <stop stop-color="#F3F7FE" offset="0%"></stop>
            <stop stop-color="#B3B1B1" offset="100%"></stop>
        </linearGradient>
        <path d="M378.576107,66.7491648 C439.965214,70.7333208 489.637465,100.218288 503.036993,146.833057 C522.138512,213.283777 460.295383,289.381108 364.90593,316.801282 C296.904789,336.34841 230.212583,325.880878 190.601137,294.18421 C107.988426,301.098866 37.0737741,269.03767 20.5877157,211.68544 C0.493482051,141.780974 68.868975,60.7751052 173.308387,30.753148 C257.514407,6.54784315 339.454828,22.8757511 378.576102,66.7491645 Z" id="path-2"></path>
        <linearGradient x1="30.286812%" y1="0%" x2="85.0355696%" y2="89.7097418%" id="linearGradient-4">
            <stop stop-color="#B3B7BA" stop-opacity="0.152485281" offset="0%"></stop>
            <stop stop-color="#7B7F85" stop-opacity="0.457455842" offset="100%"></stop>
        </linearGradient>
        <linearGradient x1="203.727651%" y1="-74.4726372%" x2="-41.6938158%" y2="165.563818%" id="linearGradient-5">
            <stop stop-color="#D2E0F9" stop-opacity="0" offset="0%"></stop>
            <stop stop-color="#B1C6E7" stop-opacity="0.464588995" offset="100%"></stop>
        </linearGradient>
        <path d="M103.65736,35.8946619 C160.655954,35.8946619 206.862434,28.0596306 206.862434,18.3946431 C206.862434,8.72969192 160.655954,0.894660577 103.65736,0.894660577 C46.6587656,0.894660577 0.452077949,8.72969192 0.452077949,18.3946431 C0.452077949,28.0596306 46.6587656,35.8946619 103.65736,35.8946619 Z" id="path-6"></path>
        <path d="M4.49526,21.4681438 C7.58604,23.4778762 36.0611138,30.9253987 39.9080338,32.2202049 C43.7549538,33.5150792 55.1505985,32.5117136 56.79905,23.8327815 C58.4475015,15.1538495 55.1379231,10.84216 45.9001146,7.51419308 C36.6622469,4.18626026 11.8189669,0.678231795 8.99668,0.805536667 C6.17439308,0.932875641 0.765143077,5.27934974 0.835686923,9.49834846 C0.90629,13.7173472 1.40442077,19.4583092 4.49526,21.4681438 Z" id="path-8"></path>
        <linearGradient x1="25.9814136%" y1="84.6169023%" x2="74.2719445%" y2="50%" id="linearGradient-10">
            <stop stop-color="#0640A2" offset="0%"></stop>
            <stop stop-color="#3D82F0" offset="100%"></stop>
        </linearGradient>
        <path d="M0.699619487,20.3084377 L16.9519144,23.4382292 C23.6933344,17.9534008 24.6498897,11.6961681 19.8216056,4.66650692 C15.3777831,3.12138346 10.3388744,1.779435 4.7048041,0.640540385 L0.699619487,20.3084377 Z" id="path-11"></path>
        <path d="M54.4036985,21.7338854 C51.2446254,23.6345801 22.5270015,30.0837797 18.6371985,31.2435685 C14.7473954,32.4033904 3.39374538,31.0029641 2.04920692,22.2717421 C0.704609231,13.5405864 4.16267923,9.34697795 13.5110715,6.34344128 C22.8593454,3.33997103 47.8099515,0.701059872 50.6261377,0.926788333 C53.4422646,1.15255 58.6965077,5.68518282 58.4787162,9.89911282 C58.2609838,14.1131092 57.5627715,19.8332238 54.4036985,21.7338854 Z" id="path-13"></path>
        <linearGradient x1="73.7257404%" y1="86.5077039%" x2="40.2932885%" y2="32.2121736%" id="linearGradient-15">
            <stop stop-color="#0640A2" offset="0%"></stop>
            <stop stop-color="#3D82F0" offset="100%"></stop>
        </linearGradient>
        <path d="M24.1783208,20.4630282 L7.82667981,23.0237368 C1.28084071,17.3070549 0.543170833,11.0202221 5.61381827,4.16330968 C10.1088413,2.77424763 15.1915817,1.60892712 20.8619407,0.667348141 L24.1783208,20.4630282 Z" id="path-16"></path>
        <path d="M35.1809231,3.53383558 C35.1809231,4.34395904 33.8261538,17.0758956 28.5641282,23.5388515 C21.9475128,31.6652538 0.885230769,26.8403463 3.86148718,33.2152921 C13.0519487,52.9012615 58.2624359,76.2068515 88.844359,76.2068515 C113.641949,76.2068515 146.729872,65.2248369 174.181897,35.9941737 C178.630308,31.2577367 147.982513,32.2108863 131.787923,20.7222185 C128.743282,18.5622473 125.778872,13.4664035 122.894872,5.43484038 C64.4188462,1.31700692 35.1809231,0.6832875 35.1809231,3.53383558 Z" id="path-18"></path>
        <linearGradient x1="50%" y1="0%" x2="56.2369778%" y2="113.86363%" id="linearGradient-20">
            <stop stop-color="#5E7FB1" offset="0%"></stop>
            <stop stop-color="#A1B8E3" stop-opacity="0.188688859" offset="100%"></stop>
        </linearGradient>
        <linearGradient x1="11.643007%" y1="74.9875265%" x2="38.103786%" y2="18.1779274%" id="linearGradient-21">
            <stop stop-color="#5E7FB1" offset="0%"></stop>
            <stop stop-color="#A1B8E3" stop-opacity="0.188688859" offset="100%"></stop>
        </linearGradient>
        <path d="M18.325125,9.13011705 C18.325125,13.9421378 18.68615,16.2561565 16.158975,20.4756318 C13.6318,24.6950326 0.700175,50.1153468 9.51265,61.478366 C18.325125,72.8413853 54.541025,73.7514696 56.0753083,58.76234 C57.6097083,43.7732104 47.9707667,23.6813365 45.1243333,17.99357 C42.2779,12.3058035 43.0183833,5.59264641 44.0713583,3.12645038 C45.1243333,0.660328846 18.325125,4.31817077 18.325125,9.13011705 Z" id="path-22"></path>
        <path d="M26.4606298,62.2272987 L21.6904435,62.2272987 C13.1533224,62.2272987 3.28057763,53.5887244 2.40662404,42.9324808 L0.529773718,20.0478474 C-0.344179872,9.39160385 7.58595006,0.752966667 18.2421905,0.752966667 L30.3575724,0.752966667 C41.0138129,0.752966667 48.9439935,9.39160385 48.0699892,20.0478474 L46.1931389,42.9324808 C45.3204022,53.5737103 35.0268049,62.2029872 26.4606298,62.2272987 Z" id="path-24"></path>
        <path d="M22.7634548,20.3617885 L22.8697904,22.8444644 C23.0588731,27.2590791 26.7925287,30.8378314 31.2166552,30.8378314 L46.6864794,30.8378314 C51.1072429,30.8378314 54.6909798,27.246471 54.6909798,22.8344291 L54.6909798,19.9130526 C55.9271798,22.8638936 59.9854298,42.5989846 59.9854298,53.7630962 C59.9854298,64.9272077 62.0817548,82.5902494 62.3175673,86.9869942 C62.5534673,91.3837391 78.6062173,100.668795 81.3887173,97.7552109 C84.1713923,94.8415237 73.2395798,48.9037859 70.3106923,31.9152929 C67.3817173,14.9269032 57.1005548,-0.402154487 36.5148673,0.327299359 C15.9291798,1.05675321 8.19234231,22.7784397 6.82611731,33.5273571 C5.45997981,44.2762744 -1.83262019,94.0638731 0.648617308,97.7552109 C3.12976731,101.446342 18.2685798,90.9425372 18.2685798,86.9869942 L18.2685798,53.7630962 C18.2685798,42.5989846 22.7634548,20.3617885 22.7634548,20.3617885 Z" id="path-26"></path>
        <path d="M6.63070513,10.8012288 C6.63070513,20.936475 14.9885817,27.4365 28.089351,27.4365 C41.1900641,27.4365 49.3791667,21.6613385 50.0487099,10.5980538 C54.2569551,21.6882346 55.4402804,56.3212731 53.598742,114.497048 C46.0541667,118.390327 38.4860337,120.273421 30.8943429,120.146573 C19.5068349,119.956119 7.17758013,115.348881 4.03184295,108.828381 C0.886161859,102.307881 6.63070513,0.665982692 6.63070513,10.8012288 Z" id="path-28"></path>
        <path d="M1.50342006,111.053197 C10.2362171,104.95427 19.5495251,95.4196465 21.0667311,94.0017517 C22.6203246,92.5498489 37.4395767,33.5823362 42.7502667,27.3731083 C48.0608629,21.1640603 80.857009,3.91450545 84.3463578,0.839760833 C84.0907079,3.93249904 75.4382821,15.1225326 93.1882233,19.2749133 C78.2275478,33.4581804 83.2557663,45.7747926 84.3463578,56.1153488 C85.4368554,66.4559049 83.2557663,82.8185557 83.2557663,98.359979 C83.2557663,113.901402 83.2557663,120.823716 84.3463578,143.497079 C85.4368554,166.170441 92.6639817,171.072975 88.5051228,175.215639 C84.3463578,179.358303 58.1110165,169.780855 52.1196563,167.368994 C46.1282024,164.957314 44.6795511,149.636132 48.3996037,134.834245 C52.1196563,120.032358 53.5427052,107.248632 53.5427052,101.523432 C53.5427052,95.7982317 55.0959235,77.0158029 52.1196563,84.8253808 C49.1432954,92.6347787 45.4425619,109.245201 40.3125899,116.359507 C35.1826179,123.473632 27.4074294,120.065286 17.1011571,120.065286 C12.9739965,107.519436 4.90180026,108.857259 1.50342006,111.053197 L0.887084423,111.500878 C1.06977186,111.350451 1.27581103,111.200025 1.50342006,111.053197 Z" id="path-30"></path>
        <filter x="-22.4%" y="-11.7%" width="144.8%" height="123.3%" filterUnits="objectBoundingBox" id="filter-32">
            <feGaussianBlur stdDeviation="14" in="SourceAlpha" result="shadowBlurInner1"></feGaussianBlur>
            <feOffset dx="9" dy="14" in="shadowBlurInner1" result="shadowOffsetInner1"></feOffset>
            <feComposite in="shadowOffsetInner1" in2="SourceAlpha" operator="arithmetic" k2="-1" k3="1" result="shadowInnerInner1"></feComposite>
            <feColorMatrix values="0 0 0 0 0.741176471   0 0 0 0 0.815686275   0 0 0 0 0.941176471  0 0 0 1 0" type="matrix" in="shadowInnerInner1"></feColorMatrix>
        </filter>
        <linearGradient x1="41.2879691%" y1="50%" x2="59.9258826%" y2="126.69552%" id="linearGradient-33">
            <stop stop-color="#82ADF6" offset="0%"></stop>
            <stop stop-color="#ADBAD1" stop-opacity="0" offset="100%"></stop>
        </linearGradient>
        <linearGradient x1="0%" y1="84.1728337%" x2="100%" y2="10.9955161%" id="linearGradient-34">
            <stop stop-color="#A9BFE4" offset="0%"></stop>
            <stop stop-color="#A9C1E8" stop-opacity="0.093580163" offset="100%"></stop>
        </linearGradient>
        <linearGradient x1="100%" y1="10.9955161%" x2="0%" y2="84.1728337%" id="linearGradient-35">
            <stop stop-color="#A9BFE4" offset="0%"></stop>
            <stop stop-color="#A9C1E8" stop-opacity="0.093580163" offset="100%"></stop>
        </linearGradient>
        <path d="M9.15567692,0.697449038 C12.6449077,3.77222058 45.7343385,21.6126319 51.0449692,27.8219563 C56.3556,34.0311044 72.4714308,97.3568319 74.0248923,98.8086898 C75.5783538,100.260548 100.385492,107.360244 106.975508,109.495796 C104.428154,109.495796 96.2958769,112.565982 101.283,123.538945 C106.583938,125.134349 61.3048154,130.653102 56.1748923,123.538945 C51.0449692,116.424789 44.6519231,93.0834356 41.6755231,85.2739462 C38.6992308,77.4646331 41.6755231,93.0834356 41.6755231,98.8086898 C41.6755231,104.533944 41.6755231,123.538945 45.3955385,135.282894 C49.1156615,147.027019 47.6669846,165.406167 41.6755231,167.817877 C35.6841692,170.229587 21.3113385,175.815528 21.3113385,167.817877 C21.3113385,167.817877 15.659,148.649051 15.5938462,138.269316 C15.5435538,130.241863 12.9608769,98.59584 12.1473692,88.7574881 C10.0318615,63.1684267 8.16490769,62.5660283 8.74450769,57.0705531 C9.835,46.7299673 15.5676769,33.9067804 0.606953846,19.7236119 C18.3569077,15.5713654 9.7538,3.75141173 9.15567692,0.697449038 Z" id="path-36"></path>
        <filter x="-19.5%" y="-11.9%" width="139.0%" height="123.8%" filterUnits="objectBoundingBox" id="filter-38">
            <feGaussianBlur stdDeviation="14" in="SourceAlpha" result="shadowBlurInner1"></feGaussianBlur>
            <feOffset dx="-2" dy="14" in="shadowBlurInner1" result="shadowOffsetInner1"></feOffset>
            <feComposite in="shadowOffsetInner1" in2="SourceAlpha" operator="arithmetic" k2="-1" k3="1" result="shadowInnerInner1"></feComposite>
            <feColorMatrix values="0 0 0 0 0.741176471   0 0 0 0 0.815686275   0 0 0 0 0.941176471  0 0 0 1 0" type="matrix" in="shadowInnerInner1"></feColorMatrix>
        </filter>
        <linearGradient x1="115.195369%" y1="12.5503626%" x2="0%" y2="64.8163018%" id="linearGradient-39">
            <stop stop-color="#A9BFE4" offset="0%"></stop>
            <stop stop-color="#A9C1E8" stop-opacity="0.093580163" offset="100%"></stop>
        </linearGradient>
        <linearGradient x1="-1.11022302e-14%" y1="64.8163018%" x2="43.3409529%" y2="39.638809%" id="linearGradient-40">
            <stop stop-color="#A9BFE4" offset="0%"></stop>
            <stop stop-color="#A9C1E8" stop-opacity="0.093580163" offset="100%"></stop>
        </linearGradient>
        <path d="M2.83785026,79.4265294 C9.85764141,72.046214 82.1892822,16.0235932 96.8585172,8.87883859 C111.527599,1.73408397 133.27847,-5.33207679 140.506815,6.82071744 C147.735314,18.9736221 140.015124,29.834254 123.585225,44.6166305 C107.155326,59.3991174 27.6249579,94.3248097 15.9225949,99.1772071 C4.22007833,104.029604 -4.1819409,86.8068447 2.83785026,79.4265294 Z" id="path-41"></path>
        <linearGradient x1="14.2769207%" y1="72.494023%" x2="61.0613916%" y2="50%" id="linearGradient-43">
            <stop stop-color="#A1B8E3" stop-opacity="0.235082654" offset="0%"></stop>
            <stop stop-color="#002B6F" offset="100%"></stop>
        </linearGradient>
        <linearGradient x1="50%" y1="38.7002263%" x2="0%" y2="50%" id="linearGradient-44">
            <stop stop-color="#DEEAFF" offset="0%"></stop>
            <stop stop-color="#FFFFFF" offset="100%"></stop>
        </linearGradient>
        <linearGradient x1="50%" y1="42.0848683%" x2="83.4167118%" y2="64.2554706%" id="linearGradient-45">
            <stop stop-color="#DEEAFF" offset="0%"></stop>
            <stop stop-color="#FFFFFF" offset="100%"></stop>
        </linearGradient>
        <path d="M9.55973846,0.845815385 C16.1399,6.01918782 17.1854667,15.9014894 16.5310385,20.5164391 C16.094759,23.5930087 14.2885795,29.1926071 11.1125,37.3150817 C9.05487692,29.4401423 5.53204615,23.4597439 0.544133333,19.3739247 C6.35497692,17.1739885 12.8207872,13.0286692 9.55973846,0.845815385 Z" id="path-46"></path>
        <linearGradient x1="0%" y1="71.6702355%" x2="106.166257%" y2="56.8915662%" id="linearGradient-48">
            <stop stop-color="#FDAE6B" offset="0%"></stop>
            <stop stop-color="#FAE539" offset="100%"></stop>
        </linearGradient>
        <linearGradient x1="100%" y1="50%" x2="0%" y2="50%" id="linearGradient-49">
            <stop stop-color="#D9E5F6" stop-opacity="0.71263587" offset="0%"></stop>
            <stop stop-color="#B2C6EA" offset="100%"></stop>
        </linearGradient>
        <linearGradient x1="100%" y1="100%" x2="23.2289251%" y2="67.7586543%" id="linearGradient-50">
            <stop stop-color="#ACC5E9" offset="0%"></stop>
            <stop stop-color="#D3E3FB" offset="62.7469178%"></stop>
            <stop stop-color="#EAF2FF" offset="100%"></stop>
        </linearGradient>
        <path d="M61.9038503,1.512385 C63.9295067,5.06153667 65.0640577,9.03800917 65.0640577,13.2371867 C65.0640577,28.2302883 50.5994821,40.3846158 32.7564103,40.3846158 C14.9133385,40.3846158 0.448762821,28.2302883 0.448762821,13.2371867 C0.448762821,8.79358083 1.71925295,4.59930333 3.97178026,0.896945 C18.2839731,3.16278667 46.7713714,3.0168075 61.9038503,1.512385 Z" id="path-51"></path>
        <linearGradient x1="77.5993706%" y1="0%" x2="40.2696226%" y2="146.300552%" id="linearGradient-53">
            <stop stop-color="#86A8D9" offset="0%"></stop>
            <stop stop-color="#BCD0F2" offset="100%"></stop>
        </linearGradient>
        <path d="M30.2884615,0.448732308 C46.5207144,0.448732308 59.679476,3.56262712 59.679476,7.40384615 C59.679476,11.2450652 46.5207144,14.35896 30.2884615,14.35896 C14.0562087,14.35896 0.897386538,11.2450652 0.897386538,7.40384615 C0.897386538,3.56262712 14.0562087,0.448732308 30.2884615,0.448732308 Z" id="path-54"></path>
        <linearGradient x1="34.2329692%" y1="5.04199562%" x2="78.6018941%" y2="100%" id="linearGradient-56">
            <stop stop-color="#B1FFBE" offset="0%"></stop>
            <stop stop-color="#5CDB8E" offset="44.420721%"></stop>
            <stop stop-color="#149654" offset="100%"></stop>
        </linearGradient>
        <path d="M28.71792,82.5640765 C27.1128433,71.4566812 22.6974125,55.4170427 9.4230675,38.141005 C1.60356583,27.9642892 1.578045,3.18172077 0.448758333,0.448689231 C6.58457917,2.55868038 17.6069658,7.99761846 28.71792,23.3333423 C40.3653425,39.40937 32.9763875,72.1947315 28.71792,82.5640765 Z" id="path-57"></path>
        <filter x="-39.2%" y="-19.2%" width="178.4%" height="138.3%" filterUnits="objectBoundingBox" id="filter-59">
            <feGaussianBlur stdDeviation="11" in="SourceAlpha" result="shadowBlurInner1"></feGaussianBlur>
            <feOffset dx="0" dy="-10" in="shadowBlurInner1" result="shadowOffsetInner1"></feOffset>
            <feComposite in="shadowOffsetInner1" in2="SourceAlpha" operator="arithmetic" k2="-1" k3="1" result="shadowInnerInner1"></feComposite>
            <feColorMatrix values="0 0 0 0 0.221483195   0 0 0 0 0.778539541   0 0 0 0 0.610041349  0 0 0 1 0" type="matrix" in="shadowInnerInner1"></feColorMatrix>
        </filter>
        <linearGradient x1="78.6009371%" y1="-9.30161748%" x2="90.360851%" y2="88.8160124%" id="linearGradient-60">
            <stop stop-color="#B1FFBE" offset="0%"></stop>
            <stop stop-color="#5CDB8E" offset="44.420721%"></stop>
            <stop stop-color="#149654" offset="100%"></stop>
        </linearGradient>
        <path d="M49.8572371,54.0293501 C44.8984783,46.0979346 36.1372406,35.3493592 20.200416,26.6341797 C10.8125137,21.5003259 2.46203821,2.60946269 0.681527628,0.904692564 C6.0729025,0.452346282 16.312144,0.897028462 29.9459417,8.8593741 C44.2378919,17.2060197 49.6208497,44.6909149 49.8572371,54.0293501 Z" id="path-61"></path>
        <filter x="-31.6%" y="-29.2%" width="163.1%" height="158.5%" filterUnits="objectBoundingBox" id="filter-63">
            <feGaussianBlur stdDeviation="11" in="SourceAlpha" result="shadowBlurInner1"></feGaussianBlur>
            <feOffset dx="0" dy="-10" in="shadowBlurInner1" result="shadowOffsetInner1"></feOffset>
            <feComposite in="shadowOffsetInner1" in2="SourceAlpha" operator="arithmetic" k2="-1" k3="1" result="shadowInnerInner1"></feComposite>
            <feColorMatrix values="0 0 0 0 0.221483195   0 0 0 0 0.778539541   0 0 0 0 0.610041349  0 0 0 1 0" type="matrix" in="shadowInnerInner1"></feColorMatrix>
        </filter>
        <path d="M1.81597096,60.0521452 C5.72582365,51.5151606 13.0576748,39.6826702 27.8008056,28.9494087 C36.4855171,22.6268135 42.35154,2.73983365 43.9037712,0.8127 C38.4748713,1.05755192 28.3336604,2.820825 15.7868065,12.5073779 C2.63428846,22.6615846 0.839418462,50.7231173 1.81597096,60.0521452 Z" id="path-64"></path>
        <filter x="-36.0%" y="-26.4%" width="172.0%" height="152.8%" filterUnits="objectBoundingBox" id="filter-66">
            <feGaussianBlur stdDeviation="11" in="SourceAlpha" result="shadowBlurInner1"></feGaussianBlur>
            <feOffset dx="0" dy="-10" in="shadowBlurInner1" result="shadowOffsetInner1"></feOffset>
            <feComposite in="shadowOffsetInner1" in2="SourceAlpha" operator="arithmetic" k2="-1" k3="1" result="shadowInnerInner1"></feComposite>
            <feColorMatrix values="0 0 0 0 0.221483195   0 0 0 0 0.778539541   0 0 0 0 0.610041349  0 0 0 1 0" type="matrix" in="shadowInnerInner1"></feColorMatrix>
        </filter>
        <path d="M28.7179487,0.448745769 C44.0827979,0.448745769 56.538519,12.9043385 56.538519,28.2692308 C56.538519,43.6340665 44.0827979,56.0897158 28.7179487,56.0897158 C13.3530995,56.0897158 0.897435897,43.6340665 0.897435897,28.2692308 C0.897435897,12.9043385 13.3530995,0.448745769 28.7179487,0.448745769 Z" id="path-67"></path>
    </defs>
    <g id="Welcome" stroke="none" stroke-width="1" fill="none" fill-rule="evenodd">
        <g id="Home" transform="translate(-844.000000, -7132.000000)">
            <g id="Group-5" transform="translate(0.000000, 6926.000000)">
                <g id="Group-15" transform="translate(228.000000, 170.000000)">
                    <g id="Artwork" transform="translate(599.000000, 22.000000)">
                        <g id="window" transform="translate(0.448718, 0.000000)">
                            <mask id="mask-3" fill="white">
                                <use xlink:href="#path-2"></use>
                            </mask>
                            <use id="Mask" fill="url(#linearGradient-1)" opacity="0.118359375" xlink:href="#path-2"></use>
                            <g id="plant" mask="url(#mask-3)">
                                <g transform="translate(401.089482, 251.277454) rotate(-1.000000) translate(-401.089482, -251.277454) translate(358.089482, 181.277454)">
                                    <path d="M20.667746,139.282401 C20.667746,121.142739 35.8308865,65.0063104 56.2982139,34.2897873" id="stem" stroke="#E7E7E7" stroke-width="6" fill="none" stroke-linecap="round"></path>
                                    <path d="M38.5675941,45.0422879 C42.0745954,40.1153033 43.828096,34.6129392 43.828096,28.5351957 C43.828096,19.4185804 41.4728891,12.0281035 38.5675941,12.0281035 C35.6622991,12.0281035 33.3070922,19.4185804 33.3070922,28.5351957 C33.3070922,34.6129392 35.0605928,40.1153033 38.5675941,45.0422879 Z" id="leaf" stroke="none" fill="#E7E7E7" fill-rule="evenodd" transform="translate(38.567594, 28.535196) rotate(-30.000000) translate(-38.567594, -28.535196) "></path>
                                    <path d="M68.560058,61.8849414 C72.0670593,56.9579568 73.8205599,51.4555927 73.8205599,45.3778492 C73.8205599,36.2612339 71.465353,28.870757 68.560058,28.870757 C65.654763,28.870757 63.2995561,36.2612339 63.2995561,45.3778492 C63.2995561,51.4555927 65.0530567,56.9579568 68.560058,61.8849414 Z" id="leaf" stroke="none" fill="#E7E7E7" fill-rule="evenodd" transform="translate(68.560058, 45.377849) rotate(88.000000) translate(-68.560058, -45.377849) "></path>
                                    <path d="M58.7646407,85.8292949 C62.2716419,80.9023103 64.0251426,75.3999462 64.0251426,69.3222027 C64.0251426,60.2055874 61.6699356,52.8151105 58.7646407,52.8151105 C55.8593457,52.8151105 53.5041388,60.2055874 53.5041388,69.3222027 C53.5041388,75.3999462 55.2576394,80.9023103 58.7646407,85.8292949 Z" id="leaf" stroke="none" fill="#E7E7E7" fill-rule="evenodd" transform="translate(58.764641, 69.322203) rotate(91.000000) translate(-58.764641, -69.322203) "></path>
                                    <path d="M50.782386,109.049063 C54.2893872,104.122079 56.0428879,98.6197146 56.0428879,92.5419711 C56.0428879,83.4253558 53.6876809,76.0348789 50.782386,76.0348789 C47.877091,76.0348789 45.5218841,83.4253558 45.5218841,92.5419711 C45.5218841,98.6197146 47.2753847,104.122079 50.782386,109.049063 Z" id="leaf" stroke="none" fill="#E7E7E7" fill-rule="evenodd" transform="translate(50.782386, 92.541971) rotate(91.000000) translate(-50.782386, -92.541971) "></path>
                                    <path d="M67.022721,33.4948623 C70.5297223,28.5678777 72.2832229,23.0655136 72.2832229,16.9877701 C72.2832229,7.87115479 69.928016,0.480677879 67.022721,0.480677879 C64.117426,0.480677879 61.7622191,7.87115479 61.7622191,16.9877701 C61.7622191,23.0655136 63.5157197,28.5678777 67.022721,33.4948623 Z" id="leaf" stroke="none" fill="#E7E7E7" fill-rule="evenodd" transform="translate(67.022721, 16.987770) rotate(33.000000) translate(-67.022721, -16.987770) "></path>
                                    <path d="M25.5163944,70.3728089 C29.0233957,65.4458243 30.7768963,59.9434602 30.7768963,53.8657167 C30.7768963,44.7491014 28.4216894,37.3586245 25.5163944,37.3586245 C22.6110995,37.3586245 20.2558925,44.7491014 20.2558925,53.8657167 C20.2558925,59.9434602 22.0093932,65.4458243 25.5163944,70.3728089 Z" id="leaf" stroke="none" fill="#E7E7E7" fill-rule="evenodd" transform="translate(25.516394, 53.865717) rotate(-41.000000) translate(-25.516394, -53.865717) "></path>
                                    <path d="M15.7209771,95.7683353 C19.2279784,90.8413507 20.981479,85.3389866 20.981479,79.2612431 C20.981479,70.1446278 18.6262721,62.7541509 15.7209771,62.7541509 C12.8156821,62.7541509 10.4604752,70.1446278 10.4604752,79.2612431 C10.4604752,85.3389866 12.2139758,90.8413507 15.7209771,95.7683353 Z" id="leaf" stroke="none" fill="#E7E7E7" fill-rule="evenodd" transform="translate(15.720977, 79.261243) rotate(-47.000000) translate(-15.720977, -79.261243) "></path>
                                </g>
                            </g>
                            <path d="M168.044872,100.737179 L213.590558,65.8848284" id="reflection" stroke="url(#linearGradient-5)" stroke-width="8" opacity="0.472712054" stroke-linecap="round" stroke-linejoin="round" mask="url(#mask-3)"></path>
                            <path d="M168.49359,118.237179 L204.4177,90.7474252" id="reflection" stroke="url(#linearGradient-5)" stroke-width="8" opacity="0.472712054" stroke-linecap="round" stroke-linejoin="round" mask="url(#mask-3)"></path>
                            <path d="M361.442308,172.532051 L406.987994,137.6797" id="reflection" stroke="url(#linearGradient-5)" stroke-width="8" opacity="0.472712054" stroke-linecap="round" stroke-linejoin="round" mask="url(#mask-3)"></path>
                            <path d="M361.891026,190.032051 L397.815136,162.542297" id="reflection" stroke="url(#linearGradient-5)" stroke-width="8" opacity="0.472712054" stroke-linecap="round" stroke-linejoin="round" mask="url(#mask-3)"></path>
                        </g>
                        <g id="person" transform="translate(166.923077, 36.346154)">
                            <g id="shadow" transform="translate(6.730769, 257.564103)">
                                <mask id="mask-7" fill="white">
                                    <use xlink:href="#path-6"></use>
                                </mask>
                                <use id="" fill="#E6E6E6" xlink:href="#path-6"></use>
                                <path d="M97.7297829,26.122886 C99.9625826,26.6743227 109.270533,21.4233514 111.540675,21.6670864 C122.341556,22.8267287 130.512861,19.2445336 140.146491,16.7302273 C156.995531,12.3327527 174.531282,1.64595387 174.531282,-5.31189372 C174.531282,-17.0840745 142.697391,-21.9899548 105.959133,-21.9899548 C69.2208743,-21.9899548 36.3649688,-19.1085117 36.3649688,-7.33633089 C36.3649688,0.767332849 53.2000744,9.29881458 72.2931147,16.7302273 C80.9366112,20.0944578 87.9334831,23.7034845 97.7297829,26.122886 Z" id="-copy" fill="#E6E6E6" style="mix-blend-mode: multiply;" mask="url(#mask-7)"></path>
                            </g>
                            <g id="shoe" transform="translate(148.525641, 275.512821)">
                                <mask id="mask-9" fill="white">
                                    <use xlink:href="#path-8"></use>
                                </mask>
                                <use id="" fill="#3378E4" xlink:href="#path-8"></use>
                            </g>
                            <g id="ankle" transform="translate(142.692308, 274.166667)">
                                <mask id="mask-12" fill="white">
                                    <use xlink:href="#path-11"></use>
                                </mask>
                                <use id="" fill="url(#linearGradient-10)" xlink:href="#path-11"></use>
                            </g>
                            <g id="shoe" transform="translate(23.333333, 275.512821)">
                                <mask id="mask-14" fill="white">
                                    <use xlink:href="#path-13"></use>
                                </mask>
                                <use id="" fill="#3378E4" xlink:href="#path-13"></use>
                            </g>
                            <g id="ankle" transform="translate(63.269231, 274.615385)">
                                <mask id="mask-17" fill="white">
                                    <use xlink:href="#path-16"></use>
                                </mask>
                                <use id="" fill="url(#linearGradient-15)" xlink:href="#path-16"></use>
                            </g>
                            <g id="hip" transform="translate(24.679487, 201.474359)">
                                <mask id="mask-19" fill="white">
                                    <use xlink:href="#path-18"></use>
                                </mask>
                                <use id="" fill="#1D1D1D" xlink:href="#path-18"></use>
                                <path d="M65.1847961,22.1480955 C70.1042842,24.9156421 99.7925117,32.2368825 106.714055,18.0833171 C111.328417,8.64760687 97.4853307,6.95365183 65.1847961,13.001452 C61.9051374,17.2541832 61.9051374,20.3030644 65.1847961,22.1480955 Z" id="Path-10" fill="url(#linearGradient-20)" style="mix-blend-mode: multiply;" mask="url(#mask-19)"></path>
                                <path d="M92.4508005,44.1411108 C92.4508005,36.837714 95.4628048,28.6011637 103.770798,19.4616236 C109.30946,13.3685968 114.453183,21.5950926 119.201967,44.1411108 C101.367856,49.0100419 92.4508005,49.0100419 92.4508005,44.1411108 Z" id="Path-11" fill="url(#linearGradient-20)" style="mix-blend-mode: multiply;" opacity="0.300000012" mask="url(#mask-19)"></path>
                                <path d="M55.2057824,44.1411108 C55.2057824,36.837714 58.2177867,28.6011637 66.5257797,19.4616236 C72.0644417,13.3685968 77.2081647,21.5950926 81.9569488,44.1411108 C64.1228379,49.0100419 55.2057824,49.0100419 55.2057824,44.1411108 Z" id="Path-11-Copy" fill="url(#linearGradient-21)" style="mix-blend-mode: multiply;" opacity="0.300000012" mask="url(#mask-19)" transform="translate(68.581366, 32.654987) scale(-1, 1) translate(-68.581366, -32.654987) "></path>
                            </g>
                            <polygon id="hair-back" fill="#181819" points="130.075565 85.5606697 79.3703813 85.5606697 79.3703813 53.7016774 130.075565 53.7016774"></polygon>
                            <g id="neck" transform="translate(74.038462, 62.820513)">
                                <mask id="mask-23" fill="white">
                                    <use xlink:href="#path-22"></use>
                                </mask>
                                <use id="" fill="#DBDBDB" xlink:href="#path-22"></use>
                                <path d="M33.3571858,67.1068377 C40.9407275,54.9321307 43.417423,48.4406189 43.417423,38.3250665 C43.417423,31.5813649 48.0811525,41.1752886 57.4086114,67.1068377 C36.3186332,75.2233091 28.3014913,75.2233091 33.3571858,67.1068377 Z" id="Path-6" fill="#F9F9F9" style="mix-blend-mode: multiply;" mask="url(#mask-23)"></path>
                                <path d="M18.1423402,10.1841686 C37.385154,25.6076795 48.5288512,33.319435 51.5734319,33.319435 C54.6180125,33.319435 52.3969206,23.8293651 44.9101559,4.84922534 L18.1423402,10.1841686 Z" id="Path-15" fill="#EAEAEA" style="mix-blend-mode: multiply;" mask="url(#mask-23)"></path>
                            </g>
                            <g id="face" transform="translate(79.076923, 13.910256)">
                                <mask id="mask-25" fill="white">
                                    <use xlink:href="#path-24"></use>
                                </mask>
                                <use id="" fill="#D2D2D2" xlink:href="#path-24"></use>
                                <path d="M9.76925365,31.4102564 C11.5641115,32.5320513 14.4807571,34.775641 19.1922969,31.8589744" id="Shape-9" stroke="#1E3159" stroke-width="3" fill-opacity="0" fill="#000000" opacity="0.15" style="mix-blend-mode: multiply;" stroke-linecap="round" stroke-linejoin="round" mask="url(#mask-25)"></path>
                                <path d="M20.0897422,52.0512807 C23.1059157,52.8541488 25.8145038,53.1290388 29.5127976,52.0512807" id="Shape-9-copy-2" stroke="#1E3159" stroke-width="3" fill-opacity="0" fill="#000000" opacity="0.300000012" style="mix-blend-mode: multiply;" stroke-linecap="round" stroke-linejoin="round" mask="url(#mask-25)"></path>
                                <path d="M29.5128313,31.4102564 C31.3076892,32.5320513 34.2243711,34.775641 38.9358867,31.8589744" id="Shape-9-copy" stroke="#1E3159" stroke-width="3" fill-opacity="0" fill="#000000" opacity="0.15" style="mix-blend-mode: multiply;" stroke-linecap="round" stroke-linejoin="round" mask="url(#mask-25)"></path>
                                <path d="M19.6410185,45.3205034 C20.4597035,44.9383492 22.7820468,46.2179465 22.7820468,46.2179465 C22.7820468,46.2179465 24.6457268,45.3580705 24.5769051,43.9743581 C24.5081185,42.5906649 25.3448751,32.5869299 25.4743518,31.4102515 C25.6038751,30.233573 27.3095418,42.5616454 27.2692101,43.076915 C27.2289251,43.5921846 29.0641035,45.7692249 29.0641035,45.7692249 C29.0641035,45.7692249 25.5667168,48.0169231 24.5769051,48.0128133 C23.5871051,48.0087035 18.8223685,45.7026769 19.6410185,45.3205034 Z" id="Shape-10" fill="#233A67" opacity="0.1" style="mix-blend-mode: multiply;" mask="url(#mask-25)"></path>
                            </g>
                            <g id="hair" transform="translate(64.166667, 0.000000)">
                                <mask id="mask-27" fill="white">
                                    <use xlink:href="#path-26"></use>
                                </mask>
                                <use id="" fill="#1C1C1C" xlink:href="#path-26"></use>
                            </g>
                            <g id="under-shirt" transform="translate(78.525641, 100.512821)">
                                <mask id="mask-29" fill="white">
                                    <use xlink:href="#path-28"></use>
                                </mask>
                                <use id="" fill="#FFFFFF" xlink:href="#path-28"></use>
                            </g>
                            <path d="M11.050484,187.99923 C5.35826308,192.856954 3.18458269,194.391824 1.993005,198.780209 C0.801350577,203.168685 5.99111288,215.785689 12.87307,221.425238 C19.7550015,227.064787 20.8585946,218.727988 20.7908669,218.727988 C20.7231392,218.727988 17.0682225,206.355397 18.2491602,203.166419 C19.4300212,199.977441 23.1692906,197.679465 23.9374423,195.554658 C24.7056196,193.429806 16.7427817,183.141551 11.050484,187.99923 Z" id="hand" fill="#3378E4"></path>
                            <path d="M217.133413,187.99923 C222.825655,192.856954 224.999295,194.391824 226.19095,198.780209 C227.382554,203.168685 222.192776,215.785689 215.310839,221.425238 C208.428852,227.064787 207.325322,218.727988 207.393067,218.727988 C207.460737,218.727988 211.115635,206.355397 209.934785,203.166419 C208.75386,199.977441 205.014557,197.679465 204.246413,195.554658 C203.478294,193.429806 211.441171,183.141551 217.133413,187.99923 Z" id="hand" fill="#3378E4"></path>
                            <g id="shirt-left" transform="translate(7.628205, 78.076923)">
                                <mask id="mask-31" fill="white">
                                    <use xlink:href="#path-30"></use>
                                </mask>
                                <g id="">
                                    <use fill="#DFEBFF" fill-rule="evenodd" xlink:href="#path-30"></use>
                                    <use fill="black" fill-opacity="1" filter="url(#filter-32)" xlink:href="#path-30"></use>
                                </g>
                                <g id="Group" mask="url(#mask-31)" fill="#FFFFFF">
                                    <g transform="translate(5.384615, 18.846154)">
                                        <circle id="Oval-2" cx="28.2692308" cy="72.2435897" r="2.24358974"></circle>
                                        <circle id="Oval-2-Copy" cx="37.6923077" cy="58.3333333" r="2.24358974"></circle>
                                        <circle id="Oval-2-Copy-2" cx="43.525641" cy="35.8974359" r="2.24358974"></circle>
                                        <circle id="Oval-2-Copy-3" cx="53.3974359" cy="43.974359" r="2.24358974"></circle>
                                        <circle id="Oval-2-Copy-4" cx="68.6538462" cy="44.4230769" r="2.24358974"></circle>
                                        <circle id="Oval-2-Copy-12" cx="67.3076923" cy="27.8205128" r="2.24358974"></circle>
                                        <circle id="Oval-2-Copy-13" cx="52.0512821" cy="18.3974359" r="2.24358974"></circle>
                                        <circle id="Oval-2-Copy-14" cx="70.8974359" cy="12.1153846" r="2.24358974"></circle>
                                        <circle id="Oval-2-Copy-15" cx="59.6794872" cy="2.24358974" r="2.24358974"></circle>
                                        <circle id="Oval-2-Copy-16" cx="41.2820513" cy="4.48717949" r="2.24358974"></circle>
                                        <circle id="Oval-2-Copy-17" cx="37.2435897" cy="20.1923077" r="2.24358974"></circle>
                                        <circle id="Oval-2-Copy-18" cx="28.2692308" cy="30.5128205" r="2.24358974"></circle>
                                        <circle id="Oval-2-Copy-19" cx="28.2692308" cy="46.2179487" r="2.24358974"></circle>
                                        <circle id="Oval-2-Copy-20" cx="19.2948718" cy="61.474359" r="2.24358974"></circle>
                                        <circle id="Oval-2-Copy-21" cx="16.6025641" cy="86.1538462" r="2.24358974"></circle>
                                        <circle id="Oval-2-Copy-24" cx="2.24358974" cy="87.0512821" r="2.24358974"></circle>
                                        <circle id="Oval-2-Copy-22" cx="17.5" cy="96.474359" r="2.24358974"></circle>
                                        <circle id="Oval-2-Copy-23" cx="33.2051282" cy="89.2948718" r="2.24358974"></circle>
                                        <circle id="Oval-2-Copy-5" cx="68.6538462" cy="62.3717949" r="2.24358974"></circle>
                                        <circle id="Oval-2-Copy-6" cx="52.9487179" cy="59.2307692" r="2.24358974"></circle>
                                        <circle id="Oval-2-Copy-7" cx="58.7820513" cy="81.2179487" r="2.24358974"></circle>
                                        <circle id="Oval-2-Copy-8" cx="73.1410256" cy="79.4230769" r="2.24358974"></circle>
                                        <circle id="Oval-2-Copy-9" cx="73.1410256" cy="103.205128" r="2.24358974"></circle>
                                        <circle id="Oval-2-Copy-25" cx="53.8461538" cy="105.897436" r="2.24358974"></circle>
                                        <circle id="Oval-2-Copy-10" cx="62.3717949" cy="93.7820513" r="2.24358974"></circle>
                                        <circle id="Oval-2-Copy-11" cx="69.5512821" cy="119.358974" r="2.24358974"></circle>
                                    </g>
                                </g>
                                <path d="M54.1795943,14.0469181 C73.5774018,14.0469181 86.1714341,22.9669476 91.5851907,14.0469181 C96.9989473,5.12688874 54.1795943,-16.2997392 54.1795943,-16.2997392 C54.1795943,-16.2997392 34.7817868,14.0469181 54.1795943,14.0469181 Z" id="Path-7" fill="url(#linearGradient-33)" style="mix-blend-mode: multiply;" opacity="0.600000024" mask="url(#mask-31)" transform="translate(68.808400, 0.855818) scale(-1, 1) translate(-68.808400, -0.855818) "></path>
                                <path d="M62.1727033,138.470533 C56.4645269,116.034636 59.4140785,89.5789936 54.6569674,83.5068071 C51.48556,79.4586828 50.6689167,86.4367308 52.2070374,104.440951 L46.4239177,131.991512 C60.7285591,151.268124 65.9781543,153.427798 62.1727033,138.470533 Z" id="Path-5" fill="url(#linearGradient-34)" mask="url(#mask-31)"></path>
                                <path d="M51.9607953,85.2536982 C44.5057277,92.2037912 41.226069,104.838864 37.1291721,108.395099 C34.3979075,110.765922 27.9105593,114.615982 17.6671275,119.945279 L43.5296813,124.950416 C54.120469,93.8525424 56.9308404,80.620303 51.9607953,85.2536982 Z" id="Path-12" fill="url(#linearGradient-35)" opacity="0.5" mask="url(#mask-31)"></path>
                            </g>
                            <g id="shirt-right" transform="translate(109.038462, 77.628205)">
                                <mask id="mask-37" fill="white">
                                    <use xlink:href="#path-36"></use>
                                </mask>
                                <g id="">
                                    <use fill="#DFEBFF" fill-rule="evenodd" xlink:href="#path-36"></use>
                                    <use fill="black" fill-opacity="1" filter="url(#filter-38)" xlink:href="#path-36"></use>
                                </g>
                                <g id="Group-3" mask="url(#mask-37)" fill="#FFFFFF">
                                    <g transform="translate(13.012821, 20.641026)">
                                        <circle id="Oval-2-Copy-3" cx="13.0128205" cy="3.58974359" r="2.24358974"></circle>
                                        <circle id="Oval-2-Copy-26" cx="31.8589744" cy="2.24358974" r="2.24358974"></circle>
                                        <circle id="Oval-2-Copy-27" cx="36.7948718" cy="19.2948718" r="2.24358974"></circle>
                                        <circle id="Oval-2-Copy-28" cx="21.9871795" cy="19.2948718" r="2.24358974"></circle>
                                        <circle id="Oval-2-Copy-29" cx="2.24358974" cy="14.3589744" r="2.24358974"></circle>
                                        <circle id="Oval-2-Copy-30" cx="7.62820513" cy="30.0641026" r="2.24358974"></circle>
                                        <circle id="Oval-2-Copy-31" cx="31.4102564" cy="35.8974359" r="2.24358974"></circle>
                                        <circle id="Oval-2-Copy-32" cx="47.5641026" cy="28.7179487" r="2.24358974"></circle>
                                        <circle id="Oval-2-Copy-33" cx="47.1153846" cy="45.3205128" r="2.24358974"></circle>
                                        <circle id="Oval-2-Copy-34" cx="21.9871795" cy="44.8717949" r="2.24358974"></circle>
                                        <circle id="Oval-2-Copy-35" cx="6.73076923" cy="46.2179487" r="2.24358974"></circle>
                                        <circle id="Oval-2-Copy-36" cx="8.97435897" cy="64.6153846" r="2.24358974"></circle>
                                        <circle id="Oval-2-Copy-45" cx="5.83333333" cy="81.6666667" r="2.24358974"></circle>
                                        <circle id="Oval-2-Copy-46" cx="19.2948718" cy="81.6666667" r="2.24358974"></circle>
                                        <circle id="Oval-2-Copy-47" cx="17.5" cy="94.6794872" r="2.24358974"></circle>
                                        <circle id="Oval-2-Copy-48" cx="8.07692308" cy="105" r="2.24358974"></circle>
                                        <circle id="Oval-2-Copy-49" cx="12.1153846" cy="121.602564" r="2.24358974"></circle>
                                        <circle id="Oval-2-Copy-50" cx="27.8205128" cy="117.564103" r="2.24358974"></circle>
                                        <circle id="Oval-2-Copy-51" cx="28.7179487" cy="104.102564" r="2.24358974"></circle>
                                        <circle id="Oval-2-Copy-37" cx="23.3333333" cy="59.6794872" r="2.24358974"></circle>
                                        <circle id="Oval-2-Copy-38" cx="38.5897436" cy="58.3333333" r="2.24358974"></circle>
                                        <circle id="Oval-2-Copy-39" cx="54.7435897" cy="56.9871795" r="2.24358974"></circle>
                                        <circle id="Oval-2-Copy-40" cx="48.9102564" cy="70.8974359" r="2.24358974"></circle>
                                        <circle id="Oval-2-Copy-41" cx="45.3205128" cy="88.3974359" r="2.24358974"></circle>
                                        <circle id="Oval-2-Copy-42" cx="61.9230769" cy="83.4615385" r="2.24358974"></circle>
                                        <circle id="Oval-2-Copy-43" cx="62.3717949" cy="94.2307692" r="2.24358974"></circle>
                                        <circle id="Oval-2-Copy-44" cx="80.3205128" cy="90.6410256" r="2.24358974"></circle>
                                    </g>
                                </g>
                                <path d="M25.0012905,153.449317 C25.0012905,140.503765 37.7510163,103.619141 38.3831682,99.067939 C38.8046029,96.0338043 39.5524661,90.8857025 40.626758,83.6236336 L50.8941784,128.602066 L50.8941784,141.41379 C33.6322531,158.067843 25.0012905,162.079685 25.0012905,153.449317 Z" id="Path-4" fill="url(#linearGradient-39)" mask="url(#mask-37)"></path>
                                <path d="M6.16555723,14.4956361 C25.5633647,14.4956361 38.1573971,23.4156655 43.5711537,14.4956361 C48.9849103,5.57560668 6.16555723,-15.8510213 6.16555723,-15.8510213 C6.16555723,-15.8510213 -13.2322503,14.4956361 6.16555723,14.4956361 Z" id="Path-7" fill="url(#linearGradient-33)" style="mix-blend-mode: multiply;" opacity="0.600000024" mask="url(#mask-37)"></path>
                                <path d="M40.8410786,84.1946297 C44.6328495,90.7985562 58.5062699,112.389346 63.0867291,115.454881 C66.1403686,117.498571 71.7599217,119.586275 79.9453884,121.717994 L56.5577458,129.583465 L50.8049603,119.05394 C41.6345253,91.4117822 38.3132314,79.792012 40.8410786,84.1946297 Z" id="Path-13" fill="url(#linearGradient-40)" mask="url(#mask-37)"></path>
                            </g>
                            <g id="leg" transform="translate(73.141026, 195.192308)">
                                <mask id="mask-42" fill="white">
                                    <use xlink:href="#path-41"></use>
                                </mask>
                                <use id="" fill="#252525" xlink:href="#path-41"></use>
                                <path d="M41.1375907,89.9351925 C30.062546,88.9109579 16.4506501,84.0483656 0.301903128,75.3474156 L15.8019218,64.8572055 L44.302193,84.8686609 C53.267503,89.2705833 52.2126355,90.9594271 41.1375907,89.9351925 Z" id="Path-2" fill="url(#linearGradient-43)" style="mix-blend-mode: multiply;" opacity="0.300000012" mask="url(#mask-42)"></path>
                            </g>
                            <path d="M152.776736,274.618837 C145.756944,267.238522 73.4253037,211.215901 58.7560687,204.071146 C44.0869872,196.926392 22.336116,189.860231 15.1077706,202.013025 C7.87927179,214.16593 15.5993079,225.026562 32.0293606,239.808938 C48.4592599,254.591425 127.989628,289.517117 139.691991,294.369515 C151.394354,299.221912 159.79668,281.999152 152.776736,274.618837 Z" id="leg" fill="#252525"></path>
                            <path d="M92.0408103,78.9227385 C85.4606487,84.0961109 84.4150462,93.9784125 85.0694744,98.5933622 C85.5057179,101.66997 87.3118974,107.26953 90.4880128,115.392005 C92.5456897,107.517065 96.0684667,101.536705 101.056344,97.4508478 C95.2455359,95.2509115 88.7797436,91.1055923 92.0408103,78.9227385 Z" id="colar" fill="url(#linearGradient-44)"></path>
                            <g id="colar" transform="translate(108.589744, 77.628205)">
                                <mask id="mask-47" fill="white">
                                    <use xlink:href="#path-46"></use>
                                </mask>
                                <use id="" fill="url(#linearGradient-45)" xlink:href="#path-46"></use>
                                <path d="M3.79676639,27.8640819 C8.60027092,23.2425823 20.1379605,4.65416526 6.52862577,0.177909351 C-2.54426405,-2.80626125 -6.12607489,4.33178455 -4.21680674,21.5920468 C-2.07676101,28.8544032 0.594430031,30.9450815 3.79676639,27.8640819 Z" id="Path-8" fill="#A1B8E4" opacity="0.225390625" mask="url(#mask-47)"></path>
                            </g>
                        </g>
                        <g id="laptop" transform="translate(406.089744, 264.294872)">
                            <path d="M46.6053853,92.3374021 L2.4160159,72.8678354 C1.28195397,72.3682687 0.767808462,71.0440087 1.26737872,69.9100554 C1.54417487,69.2818754 2.09322077,68.8149754 2.75779897,68.6428221 L87.356465,46.7236754 L132.945326,67.4853954 L46.6053853,92.3374021 Z" id="" fill="#393636"></path>
                            <path d="M149.864063,0.88816 L69.7468813,16.3112133 C67.158879,16.8093333 65.1002311,18.77176 64.47854,21.3324533 L47.1866908,92.54672 L129.417322,72.06332 C131.40905,71.5672533 132.993252,70.0611333 133.589419,68.0972133 L152.949568,4.31396 C153.381224,2.891 152.577862,1.38749333 151.155169,0.955733333 C150.736919,0.828706667 150.293574,0.805466667 149.864063,0.88816 Z" id="" fill="#000000"></path>
                            <path d="M105.866286,52.209614 C102.037602,54.7313505 97.7281397,55.2847086 95.4791609,51.8697765 C93.229758,48.4548261 95.9029772,43.9145965 99.7321657,41.3928967 C103.56089,38.8711786 107.425374,38.3753493 109.674293,41.7902629 C111.923696,45.2052318 109.695474,49.6879326 105.866286,52.209614 Z" id="" fill="#FFFFFF"></path>
                        </g>
                        <g id="paper" transform="translate(55.641026, 122.051282)">
                            <path d="M37.2663703,25.1227887 C66.397441,33.2929396 87.6272133,34.5089594 100.955816,28.770871 C86.9051364,40.9933381 75.7128472,46.4297844 67.3790133,45.0802329 C54.8782626,43.0559056 42.0678103,28.770871 37.2663703,25.1227887 Z" id="" fill="#F4F4F4"></path>
                            <path d="M0.451320513,0.89187 L52.8985603,0.89187 C52.8985603,28.293405 67.7849667,38.1957975 83.6641095,41.539995 C65.1112933,51.99117 30.3371744,46.075575 20.4899513,37.43691 C10.6426438,28.798245 4.78231026,25.3839075 0.451320513,0.89187 Z" id="" fill="url(#linearGradient-4)"></path>
                        </g>
                        <g id="paper" transform="translate(460.384615, 175.897436)">
                            <path d="M47.2659627,4.29652731 C49.0065576,6.00858641 50.4904858,7.66865167 51.7172735,9.27690615 C54.2713832,12.6247423 55.0341867,17.2522556 54.8564845,17.3690892 C53.8877159,18.0067004 48.3483162,14.3286087 47.2659627,11.3413273 C46.6171192,9.55040782 46.6171192,7.20217167 47.2659627,4.29652731 Z" id="" fill="#F8F8F8"></path>
                            <path d="M0.844767628,33.6685637 C13.5775881,24.9754548 20.2522676,14.1447587 20.8697035,1.17647519 C24.213101,0.677768269 30.6710497,1.30001891 46.8751522,4.11759519 C48.3841907,4.38000096 48.5174599,6.77383045 47.2754087,11.2991743 C52.7385497,13.3025676 55.2414984,15.2110144 54.7851522,17.0243334 C50.8252163,32.7460193 45.586883,39.9139116 37.6813702,43.2822228 C28.6123317,44.4335904 16.3336138,41.2290222 0.844767628,33.6685637 Z" id="" fill="url(#linearGradient-4)"></path>
                        </g>
                        <g id="paper" transform="translate(157.500000, 19.743590)">
                            <path d="M39.8330742,15.3769458 C39.9407225,17.1485906 39.9347492,18.7672544 39.8152825,20.2329494 C39.5665958,23.2840879 37.7276025,26.1550221 37.5748217,26.1317969 C36.7412267,26.0049367 35.53767,21.3232008 36.4062358,19.1828848 C36.9269425,17.8997808 38.0692608,16.6311788 39.8330742,15.3769458 Z" id="" fill="#EFEFF0"></path>
                            <path d="M0.466115641,8.66387218 C11.5737121,10.161152 20.4483623,7.5568491 27.090149,0.850998077 C29.1390185,2.20786147 32.3253736,5.68565532 39.7089162,15.0900651 C40.39651,15.965871 39.3041456,17.3240474 36.4317405,19.1646287 C38.4086141,22.9044595 38.8326221,25.1531951 37.7038882,25.9106629 C27.9169459,32.4782397 21.6002141,33.8025212 15.6904821,31.7765377 C10.2310546,27.9871258 5.15629333,20.2829155 0.466115641,8.66387218 Z" id="" fill="url(#linearGradient-4)"></path>
                        </g>
                        <g id="yellow-paper" transform="translate(365.705128, 69.551282)">
                            <path d="M35.0910893,0.838836923 C30.5081458,13.5965631 15.5876691,20.9601969 0.523762885,23.75436 C6.60814538,33.2635477 18.7524813,48.5456031 29.3027085,59.5806185 C29.8046022,60.1056185 31.8377033,60.9278492 32.3724374,61.3592215 C35.6048319,63.9670985 39.0646218,62.4929631 40.860746,62.4677631 C49.7456252,59.6869108 57.6320563,58.4934 65.0263214,51.7838031 C68.8175133,48.3437446 71.6337354,45.1858615 72.5280307,43.6553169 C70.3186597,36.91212 59.3809313,31.0056277 35.0910893,0.838836923 Z" id="" fill="url(#linearGradient-48)"></path>
                            <path d="M38.6467222,55.3119691 C38.8152692,59.0488397 32.2405318,62.4707982 28.4840958,58.8005712 C32.5124549,62.6595303 36.0954493,63.2289534 39.0673419,63.2195052 C42.0393705,63.2099937 55.9186869,63.2439482 72.4711885,43.6647786 C57.8262726,59.6089411 46.7247864,63.7069103 38.6467222,55.3119691 Z" id="" fill="#FF9600"></path>
                        </g>
                        <g id="plant" transform="translate(31.858974, 236.923077)">
                            <g id="Pot" transform="translate(17.948718, 80.320513)">
                                <path d="M27.3717971,34.5512785 C42.2409912,34.5512785 54.2948808,37.1629659 54.2948808,40.3846154 C54.2948808,43.6062649 42.2409912,46.2179523 27.3717971,46.2179523 C12.5026031,46.2179523 0.448713462,43.6062649 0.448713462,40.3846154 C0.448713462,37.1629659 12.5026031,34.5512785 27.3717971,34.5512785 Z" id="Ellipse-3" fill="url(#linearGradient-49)" opacity="0.7"></path>
                                <g id="Ellipse-2" transform="translate(1.346154, 4.935897)">
                                    <mask id="mask-52" fill="white">
                                        <use xlink:href="#path-51"></use>
                                    </mask>
                                    <use fill="url(#linearGradient-50)" xlink:href="#path-51"></use>
                                </g>
                                <g id="Ellipse-1" transform="translate(4.038462, 0.000000)">
                                    <mask id="mask-55" fill="white">
                                        <use xlink:href="#path-54"></use>
                                    </mask>
                                    <use fill="url(#linearGradient-53)" xlink:href="#path-54"></use>
                                </g>
                            </g>
                            <g id="leaves">
                                <g id="leaf" transform="translate(21.089744, 0.000000)">
                                    <g id="Shape-2">
                                        <mask id="mask-58" fill="white">
                                            <use xlink:href="#path-57"></use>
                                        </mask>
                                        <g>
                                            <use fill="url(#linearGradient-56)" fill-rule="evenodd" xlink:href="#path-57"></use>
                                            <use fill="black" fill-opacity="1" filter="url(#filter-59)" xlink:href="#path-57"></use>
                                        </g>
                                        <path d="M26.9741607,69.1805955 L18.996375,31.428081 C24.1996402,42.0098569 26.6633313,53.7114871 26.9741559,69.1805727 Z M18.996375,31.428081 L17.0306326,22.1257859 L14.3094073,23.2595637 C16.0685239,25.9370256 17.6272838,28.6437879 18.996375,31.428081 Z M26.9741559,69.1805727 C27.0575488,73.3308637 26.9859728,77.752346 26.7707586,82.4961519 L29.7368073,82.2540049 L26.9741607,69.1805955 Z" id="Shape-3" stroke="#489C71" stroke-width="3" fill-opacity="0" fill="#000000" opacity="0.5" style="mix-blend-mode: multiply;" mask="url(#mask-58)"></path>
                                    </g>
                                </g>
                                <g id="leaf" transform="translate(0.000000, 39.935897)">
                                    <g id="Shape-2">
                                        <mask id="mask-62" fill="white">
                                            <use xlink:href="#path-61"></use>
                                        </mask>
                                        <g>
                                            <use fill="url(#linearGradient-60)" fill-rule="evenodd" xlink:href="#path-61"></use>
                                            <use fill="black" fill-opacity="1" filter="url(#filter-63)" xlink:href="#path-61"></use>
                                        </g>
                                        <path d="M26.7117131,19.9052347 L20.8238615,11.718653 L18.7912645,13.8538549 C21.6473411,15.7017793 24.2705379,17.695759 26.7117131,19.9052347 Z M42.5920964,41.9856237 C44.4706529,45.8010085 46.2941384,50.022138 48.1162167,54.7222836 L50.7325605,53.3042809 L42.5920964,41.9856237 Z" id="Shape-3" stroke="#489C71" stroke-width="3" fill-opacity="0" fill="#000000" opacity="0.5" style="mix-blend-mode: multiply;" mask="url(#mask-62)"></path>
                                    </g>
                                </g>
                                <g id="leaf" transform="translate(51.602564, 35.000000)">
                                    <g id="Shape-2">
                                        <mask id="mask-65" fill="white">
                                            <use xlink:href="#path-64"></use>
                                        </mask>
                                        <g>
                                            <use fill="url(#linearGradient-56)" fill-rule="evenodd" xlink:href="#path-64"></use>
                                            <use fill="black" fill-opacity="1" filter="url(#filter-66)" xlink:href="#path-64"></use>
                                        </g>
                                        <path d="M5.95801883,47.0760649 C9.39812772,36.9489249 13.5097607,29.3108066 18.9816589,22.9098181 L5.95801883,47.0760649 Z M18.9816589,22.9098181 C21.1150555,20.4141856 23.4552235,18.1066071 26.0429816,15.9128888 L23.7525636,14.0570811 L18.9816589,22.9098181 Z M5.95801883,47.0760649 L-0.641599118,59.3221033 L2.13571503,60.3908768 C3.3327237,55.5082096 4.5924653,51.0960399 5.95801883,47.0760649 Z" id="Shape-3" stroke="#489C71" stroke-width="3" fill-opacity="0" fill="#000000" opacity="0.5" style="mix-blend-mode: multiply;" mask="url(#mask-65)"></path>
                                    </g>
                                </g>
                            </g>
                        </g>
                        <g id="clock" opacity="0.600000024" transform="translate(480.576923, 14.358974)">
                            <mask id="mask-68" fill="white">
                                <use xlink:href="#path-67"></use>
                            </mask>
                            <use id="Ellipse-4" fill="#030303" xlink:href="#path-67"></use>
                            <path d="M32.0572275,28.840825 L35.3553934,39.34608 L40.3389692,36.3261471 L32.0572275,28.044383 L32.0572275,9.26987429 L26.1949748,10.1684897 L31.6927529,27.6799074 L31.1785507,27.1657039 L32.0572275,29.2870213 L32.0572275,28.840825 Z" id="Shape-8" stroke="#FFFFFF" stroke-width="6" mask="url(#mask-68)"></path>
                        </g>
                    </g>
                </g>
            </g>
        </g>
    </g>
</svg>