<?xml version="1.0" encoding="UTF-8"?>
<svg width="581px" height="397px" viewBox="0 0 581 397" version="1.1" xmlns="http://www.w3.org/2000/svg" xmlns:xlink="http://www.w3.org/1999/xlink">
    <!-- Generator: Sketch 51.3 (57544) - http://www.bohemiancoding.com/sketch -->
    <title>Artwork@2x</title>
    <desc>Created with Sketch.</desc>
    <defs>
        <linearGradient x1="50%" y1="100%" x2="75.1149712%" y2="-5.94915403%" id="linearGradient-1">
            <stop stop-color="#F3F7FE" offset="0%"></stop>
            <stop stop-color="#B3B1B1" offset="100%"></stop>
        </linearGradient>
        <linearGradient x1="203.727651%" y1="-74.4726372%" x2="-41.6938158%" y2="165.563818%" id="linearGradient-2">
            <stop stop-color="#D2E0F9" stop-opacity="0" offset="0%"></stop>
            <stop stop-color="#B1C6E7" stop-opacity="0.464588995" offset="100%"></stop>
        </linearGradient>
        <linearGradient x1="0%" y1="154.068788%" x2="87.7962299%" y2="34.8972971%" id="linearGradient-3">
            <stop stop-color="#B3B7BA" stop-opacity="0.152485281" offset="0%"></stop>
            <stop stop-color="#7B7F85" stop-opacity="0.457455842" offset="100%"></stop>
        </linearGradient>
        <path d="M28.86687,26.6576368 C29.7812646,29.8130475 29.3677937,32.0903381 27.6256413,33.4895919 C25.0122242,35.5884726 22.388009,39.1584215 19.8007713,39.4522682 C17.2136592,39.7461982 14.4124664,41.1649695 13.9588161,44.7941381 C13.7397758,46.5475426 4.76200897,55.611748 1.55456502,68.0827561 C0.742502242,71.2403354 1.73034978,76.0990224 4.5181704,82.6587336 L11.9352825,78.5758251 L22.4991928,61.4644924 C34.2314439,57.3888404 40.8454081,54.864078 42.3404574,53.8902888 C44.5834709,52.4296466 51.8494081,46.1792126 50.4485291,43.8355291 C49.0475874,41.4919291 53.605435,26.6018368 56.3122063,23.7074933 C59.0193543,20.8131498 61.2363767,13.7601632 61.2906816,11.1560798 C61.3444843,8.55199641 62.2830493,0.755760538 55.526574,1.00448341 C51.0220897,1.17038206 42.1354798,9.72146099 28.86687,26.6576368 Z" id="path-4"></path>
        <linearGradient x1="38.3761593%" y1="59.0460022%" x2="31.1679871%" y2="80.9554112%" id="linearGradient-6">
            <stop stop-color="#2E7DE7" stop-opacity="0" offset="0%"></stop>
            <stop stop-color="#00357E" stop-opacity="0.5" offset="100%"></stop>
        </linearGradient>
        <path d="M91.4902399,1.17597848 C103.929659,4.0091426 112.287955,8.73125919 116.564617,15.3426457 C122.979417,25.2595139 126.193783,51.6021937 126.193783,60.1466637 C126.193783,68.6911336 127.216715,89.6519552 126.193783,95.3705632 C125.170978,101.089171 120.47359,105.337171 110.752534,105.337171 C104.271787,105.337171 67.5395045,93.2829686 0.556197309,69.1743516 C9.36525336,64.8181937 13.9100448,61.809035 14.1903161,60.1466637 C14.610787,57.6532126 35.0524439,12.1836323 41.5174709,7.55157668 C47.9826256,2.91962691 61.4028027,0.727472646 66.7830404,0.727472646 C65.9965426,2.91126637 64.2462848,4.67332915 66.7202892,7.55157668 C69.1942937,10.42993 74.0490067,10.9327265 78.8579664,8.93487534 C82.0637691,7.60300987 86.2744843,5.01674619 91.4902399,1.17597848 Z" id="path-7"></path>
        <filter x="-15.3%" y="-18.4%" width="130.5%" height="136.9%" filterUnits="objectBoundingBox" id="filter-9">
            <feGaussianBlur stdDeviation="13.5" in="SourceAlpha" result="shadowBlurInner1"></feGaussianBlur>
            <feOffset dx="-12" dy="1" in="shadowBlurInner1" result="shadowOffsetInner1"></feOffset>
            <feComposite in="shadowOffsetInner1" in2="SourceAlpha" operator="arithmetic" k2="-1" k3="1" result="shadowInnerInner1"></feComposite>
            <feColorMatrix values="0 0 0 0 0.0901960784   0 0 0 0 0.254901961   0 0 0 0 0.57254902  0 0 0 0.204200634 0" type="matrix" in="shadowInnerInner1"></feColorMatrix>
        </filter>
        <linearGradient x1="50%" y1="100%" x2="50%" y2="3.061617e-15%" id="linearGradient-10">
            <stop stop-color="#70B8F9" stop-opacity="0.27587183" offset="0%"></stop>
            <stop stop-color="#3D82F0" offset="100%"></stop>
        </linearGradient>
        <linearGradient x1="55.2458064%" y1="54.3672421%" x2="100%" y2="81.9563837%" id="linearGradient-11">
            <stop stop-color="#3D82F0" stop-opacity="0" offset="0%"></stop>
            <stop stop-color="#3D82F0" offset="100%"></stop>
        </linearGradient>
        <path d="M30.2302974,128.623573 C27.500927,127.085916 18.3655318,130.756647 18.3655318,138.180319 C13.5140018,121.667017 0.0504708977,99.3156049 0.0504708977,74.8879408 C6.22238121,53.5927143 22.3236879,20.0201094 25.9195695,14.7509709 C28.3168861,11.2381614 40.1948987,6.32113498 61.5532341,4.26008969e-05 C66.3305184,5.22142691 71.9922224,7.83219462 78.5381596,7.83219462 C88.3568789,7.83219462 88.8728682,1.81062422 91.4959067,1.4964435 C94.1191318,1.18211166 108.979473,7.83219462 116.309094,14.90723 C123.638716,21.9821143 131.486005,49.8083404 150.765833,71.4085291 C170.045848,93.0087179 176.961148,108.079116 186.527096,116.195074 C183.017772,119.337636 178.263806,121.168166 178.263806,128.623573 C174.801492,126.085343 155.483236,112.798778 139.109998,97.3331987 C122.736947,81.86777 115.475602,69.005704 113.004413,67.2646381 C110.162741,65.2622839 116.586303,127.210742 116.309094,138.180319 C116.031512,149.150198 78.3144897,149.775839 66.5196771,149.775839 C54.724678,149.775839 36.4835444,145.693454 31.8013991,141.667589 C31.029711,141.004173 33.0523225,53.9056393 31.8013991,57.5602706 C28.6277209,66.8323202 21.2573248,71.4085291 21.2573248,77.5148785 C21.2573248,91.7050386 30.247195,129.622749 30.2302974,128.623573 Z" id="path-12"></path>
        <linearGradient x1="80.1029501%" y1="78.4730566%" x2="13.5486675%" y2="29.9321756%" id="linearGradient-14">
            <stop stop-color="#B3B7BA" stop-opacity="0.152485281" offset="0%"></stop>
            <stop stop-color="#7B7F85" stop-opacity="0.457455842" offset="100%"></stop>
        </linearGradient>
        <path d="M179.464794,139.823842 C187.068733,142.959824 192.550699,146.308717 195.910843,149.870522 C200.950909,155.213104 225.461668,196.768361 228.351568,199.228208 C231.241544,201.688222 251.130874,203.551849 254.125432,204.533557 C252.593898,206.749968 249.614193,213.593833 251.145803,219.613388 C246.419032,221.9929 236.036294,219.868312 214.798223,217.4888 C198.999678,204.273602 190.796434,183.430649 187.418404,173.480404 C184.040299,163.530243 181.389196,152.311417 179.464794,139.823842 Z" id="path-15"></path>
        <filter x="-25.7%" y="-23.3%" width="151.5%" height="146.5%" filterUnits="objectBoundingBox" id="filter-16">
            <feGaussianBlur stdDeviation="13.5" in="SourceAlpha" result="shadowBlurInner1"></feGaussianBlur>
            <feOffset dx="-12" dy="1" in="shadowBlurInner1" result="shadowOffsetInner1"></feOffset>
            <feComposite in="shadowOffsetInner1" in2="SourceAlpha" operator="arithmetic" k2="-1" k3="1" result="shadowInnerInner1"></feComposite>
            <feColorMatrix values="0 0 0 0 0.0901960784   0 0 0 0 0.254901961   0 0 0 0 0.57254902  0 0 0 0.204200634 0" type="matrix" in="shadowInnerInner1"></feColorMatrix>
        </filter>
        <path d="M189.898592,146.950309 C196.037577,157.450942 205.507266,178.535781 208.196343,187.638074 C211.080314,197.400397 199.86979,223.107384 199.999977,229.148027 C200.108547,234.185289 194.92494,232.426396 148.877867,237.060555 C147.45477,228.179052 147.45477,217.073866 148.877867,203.7452 C151.012479,183.751895 142.313975,156.853413 144.725609,152.336826 C147.137243,147.820238 153.004172,138.215695 155.579641,138.215695 C158.15504,138.215695 183.759607,136.449778 189.898592,146.950309 Z" id="path-17"></path>
        <filter x="-27.9%" y="-19.2%" width="155.8%" height="138.3%" filterUnits="objectBoundingBox" id="filter-18">
            <feGaussianBlur stdDeviation="13.5" in="SourceAlpha" result="shadowBlurInner1"></feGaussianBlur>
            <feOffset dx="-12" dy="1" in="shadowBlurInner1" result="shadowOffsetInner1"></feOffset>
            <feComposite in="shadowOffsetInner1" in2="SourceAlpha" operator="arithmetic" k2="-1" k3="1" result="shadowInnerInner1"></feComposite>
            <feColorMatrix values="0 0 0 0 0.0901960784   0 0 0 0 0.254901961   0 0 0 0 0.57254902  0 0 0 0.204200634 0" type="matrix" in="shadowInnerInner1"></feColorMatrix>
        </filter>
        <linearGradient x1="50.7279425%" y1="82.0063249%" x2="-41.7521626%" y2="-122.254598%" id="linearGradient-19">
            <stop stop-color="#F9F9F9" offset="0%"></stop>
            <stop stop-color="#E9E9E9" offset="100%"></stop>
            <stop stop-color="#F7F7F7" offset="100%"></stop>
        </linearGradient>
        <linearGradient x1="50%" y1="0%" x2="43.2115203%" y2="60.2836879%" id="linearGradient-20">
            <stop stop-color="#777777" offset="0%"></stop>
            <stop stop-color="#2D64D7" stop-opacity="0" offset="100%"></stop>
        </linearGradient>
        <path d="M22.8595538,12.2817794 C21.7123229,17.6425991 22.7023722,21.5210825 22.7023722,27.6225256 C22.7023722,35.7777 6.04977803,32.4594605 5.48140359,26.2772354 C4.91302915,20.095083 5.58434978,11.8067126 3.23925336,6.19076099 C0.894156951,0.574773094 24.0067848,6.92099596 22.8595538,12.2817794 Z" id="path-21"></path>
        <linearGradient x1="0%" y1="100%" x2="64.4576285%" y2="39.1077536%" id="linearGradient-23">
            <stop stop-color="#FF7F31" offset="0%"></stop>
            <stop stop-color="#FFD25F" offset="100%"></stop>
        </linearGradient>
        <polygon id="path-24" points="0.876769058 53.6237274 7.16420135 2.61544484 92.9049987 0.896810762 85.408178 50.69607"></polygon>
        <linearGradient x1="72.8421053%" y1="27.9286529%" x2="0%" y2="50%" id="linearGradient-26">
            <stop stop-color="#FF7F31" offset="0%"></stop>
            <stop stop-color="#FFC83A" stop-opacity="0" offset="100%"></stop>
        </linearGradient>
        <linearGradient x1="50%" y1="69.9897551%" x2="100%" y2="36.6087379%" id="linearGradient-27">
            <stop stop-color="#FF7F31" offset="0%"></stop>
            <stop stop-color="#FFC83A" stop-opacity="0" offset="100%"></stop>
        </linearGradient>
        <path d="M122.674897,179.357431 C116.042351,196.317771 121.285814,209.190613 124.197312,223.885225 C127.108894,238.579837 128.433575,241.759936 133.073691,244.748527 C137.71389,247.737117 149.092127,251.900265 192.825138,256.950657 C192.825138,253.457457 192.713609,244.779761 198.429604,237.492868 C190.348269,237.492868 161.621547,229.569746 151.744592,227.08672 C142.870813,220.286098 151.744592,209.382504 151.744592,188.925525 C151.744592,168.468738 129.307443,162.397091 122.674897,179.357431 Z" id="path-28"></path>
        <filter x="-23.3%" y="-20.4%" width="146.5%" height="140.8%" filterUnits="objectBoundingBox" id="filter-29">
            <feGaussianBlur stdDeviation="13.5" in="SourceAlpha" result="shadowBlurInner1"></feGaussianBlur>
            <feOffset dx="-12" dy="1" in="shadowBlurInner1" result="shadowOffsetInner1"></feOffset>
            <feComposite in="shadowOffsetInner1" in2="SourceAlpha" operator="arithmetic" k2="-1" k3="1" result="shadowInnerInner1"></feComposite>
            <feColorMatrix values="0 0 0 0 0.0901960784   0 0 0 0 0.254901961   0 0 0 0 0.57254902  0 0 0 0.204200634 0" type="matrix" in="shadowInnerInner1"></feColorMatrix>
        </filter>
        <linearGradient x1="30.286812%" y1="0%" x2="85.0355696%" y2="89.7097418%" id="linearGradient-30">
            <stop stop-color="#B3B7BA" stop-opacity="0.152485281" offset="0%"></stop>
            <stop stop-color="#7B7F85" stop-opacity="0.457455842" offset="100%"></stop>
        </linearGradient>
        <linearGradient x1="100%" y1="50%" x2="0%" y2="50%" id="linearGradient-31">
            <stop stop-color="#D9E5F6" stop-opacity="0.71263587" offset="0%"></stop>
            <stop stop-color="#B2C6EA" offset="100%"></stop>
        </linearGradient>
        <linearGradient x1="45.4937897%" y1="122.264865%" x2="77.7351354%" y2="45.4937897%" id="linearGradient-32">
            <stop stop-color="#ACC5E9" offset="0%"></stop>
            <stop stop-color="#D3E3FB" offset="62.7469178%"></stop>
            <stop stop-color="#EAF2FF" offset="100%"></stop>
        </linearGradient>
        <path d="M61.8641937,1.51141614 C63.8885525,5.05829417 65.0223767,9.03221928 65.0223767,13.2287067 C65.0223767,28.2122036 50.5670673,40.3587448 32.735426,40.3587448 C14.9037848,40.3587448 0.448475336,28.2122036 0.448475336,13.2287067 C0.448475336,8.78794753 1.71815157,4.59635695 3.96923587,0.896370404 C18.2722601,3.16076054 46.741409,3.01487489 61.8641937,1.51141614 Z" id="path-33"></path>
        <linearGradient x1="77.5993706%" y1="0%" x2="40.2696226%" y2="146.300552%" id="linearGradient-35">
            <stop stop-color="#86A8D9" offset="0%"></stop>
            <stop stop-color="#BCD0F2" offset="100%"></stop>
        </linearGradient>
        <path d="M30.2690583,0.448444843 C46.4909126,0.448444843 59.6412444,3.56034484 59.6412444,7.39910314 C59.6412444,11.2378614 46.4909126,14.3497614 30.2690583,14.3497614 C14.047204,14.3497614 0.896811659,11.2378614 0.896811659,7.39910314 C0.896811659,3.56034484 14.047204,0.448444843 30.2690583,0.448444843 Z" id="path-36"></path>
        <linearGradient x1="34.2329692%" y1="5.04199562%" x2="78.6018941%" y2="100%" id="linearGradient-38">
            <stop stop-color="#B1FFBE" offset="0%"></stop>
            <stop stop-color="#5CDB8E" offset="44.420721%"></stop>
            <stop stop-color="#149654" offset="100%"></stop>
        </linearGradient>
        <path d="M28.6995229,82.5111848 C27.0954744,71.4109049 22.6828722,55.3815417 9.41703094,38.1165713 C1.60253857,27.9463749 1.57703408,3.17968251 0.448470852,0.448401794 C6.58036099,2.55704126 17.5956865,7.99249507 28.6995229,23.3183946 C40.3394839,39.3841238 32.9552623,72.1484825 28.6995229,82.5111848 Z" id="path-39"></path>
        <filter x="-39.2%" y="-19.2%" width="178.4%" height="138.4%" filterUnits="objectBoundingBox" id="filter-41">
            <feGaussianBlur stdDeviation="11" in="SourceAlpha" result="shadowBlurInner1"></feGaussianBlur>
            <feOffset dx="0" dy="-10" in="shadowBlurInner1" result="shadowOffsetInner1"></feOffset>
            <feComposite in="shadowOffsetInner1" in2="SourceAlpha" operator="arithmetic" k2="-1" k3="1" result="shadowInnerInner1"></feComposite>
            <feColorMatrix values="0 0 0 0 0.221483195   0 0 0 0 0.778539541   0 0 0 0 0.610041349  0 0 0 1 0" type="matrix" in="shadowInnerInner1"></feColorMatrix>
        </filter>
        <linearGradient x1="78.6009371%" y1="-9.30161748%" x2="90.360851%" y2="88.8160124%" id="linearGradient-42">
            <stop stop-color="#B1FFBE" offset="0%"></stop>
            <stop stop-color="#5CDB8E" offset="44.420721%"></stop>
            <stop stop-color="#149654" offset="100%"></stop>
        </linearGradient>
        <path d="M49.8252978,53.9947381 C44.8697157,46.0684036 36.1140906,35.3267139 20.1874753,26.6171175 C10.805587,21.4865525 2.46046099,2.60779103 0.681091031,0.904113004 C6.06901211,0.452056502 16.3016942,0.896453812 29.9267578,8.85369865 C44.2095525,17.1949973 49.5890619,44.6622852 49.8252978,53.9947381 Z" id="path-43"></path>
        <filter x="-31.6%" y="-29.2%" width="163.2%" height="158.5%" filterUnits="objectBoundingBox" id="filter-45">
            <feGaussianBlur stdDeviation="11" in="SourceAlpha" result="shadowBlurInner1"></feGaussianBlur>
            <feOffset dx="0" dy="-10" in="shadowBlurInner1" result="shadowOffsetInner1"></feOffset>
            <feComposite in="shadowOffsetInner1" in2="SourceAlpha" operator="arithmetic" k2="-1" k3="1" result="shadowInnerInner1"></feComposite>
            <feColorMatrix values="0 0 0 0 0.221483195   0 0 0 0 0.778539541   0 0 0 0 0.610041349  0 0 0 1 0" type="matrix" in="shadowInnerInner1"></feColorMatrix>
        </filter>
        <path d="M1.81480762,60.0136749 C5.72215561,51.4821592 13.0493099,39.6572489 27.782996,28.9308632 C36.4621439,22.6123184 42.324409,2.73807848 43.8756457,0.812179372 C38.4502238,1.05687444 28.3155094,2.81901794 15.7766933,12.4993655 C2.6326009,22.6470673 0.838880717,50.6906233 1.81480762,60.0136749 Z" id="path-46"></path>
        <filter x="-36.0%" y="-26.4%" width="172.1%" height="152.9%" filterUnits="objectBoundingBox" id="filter-48">
            <feGaussianBlur stdDeviation="11" in="SourceAlpha" result="shadowBlurInner1"></feGaussianBlur>
            <feOffset dx="0" dy="-10" in="shadowBlurInner1" result="shadowOffsetInner1"></feOffset>
            <feComposite in="shadowOffsetInner1" in2="SourceAlpha" operator="arithmetic" k2="-1" k3="1" result="shadowInnerInner1"></feComposite>
            <feColorMatrix values="0 0 0 0 0.221483195   0 0 0 0 0.778539541   0 0 0 0 0.610041349  0 0 0 1 0" type="matrix" in="shadowInnerInner1"></feColorMatrix>
        </filter>
    </defs>
    <g id="Welcome" stroke="none" stroke-width="1" fill="none" fill-rule="evenodd">
        <g id="Home" transform="translate(-870.000000, -8139.000000)">
            <g id="Artwork" transform="translate(870.000000, 8138.000000)">
                <path d="M408.378429,72.5360007 C469.728209,76.5176044 519.368639,105.983683 532.759583,152.56859 C551.848865,218.97674 490.045354,295.025323 394.717009,322.427931 C326.75943,341.962537 260.109949,331.501711 220.523878,299.825348 C137.96409,306.735574 67.0948672,274.694917 50.61937,217.379427 C30.538009,147.519743 98.8696996,66.5657682 203.242206,36.5630435 C287.394282,12.3732449 369.282212,28.690693 408.378424,72.5360004 Z" id="window" fill="url(#linearGradient-1)" opacity="0.118359375"></path>
                <g id="plant" opacity="0.300000012" transform="translate(375.748755, 238.604783) rotate(-1.000000) translate(-375.748755, -238.604783) translate(332.748755, 168.604783)">
                    <path d="M20.6545059,139.193174 C20.6545059,121.065133 35.8079327,64.9646664 56.2621484,34.2678207" id="stem" stroke="#A6A4A4" stroke-width="6" stroke-linecap="round"></path>
                    <path d="M38.5428871,45.0134331 C42.0476417,40.0896048 43.8000191,34.5907656 43.8000191,28.5169156 C43.8000191,19.4061405 41.4463209,12.0203981 38.5428871,12.0203981 C35.6394533,12.0203981 33.2857552,19.4061405 33.2857552,28.5169156 C33.2857552,34.5907656 35.0381325,40.0896048 38.5428871,45.0134331 Z" id="leaf" fill="#A6A4A4" transform="translate(38.542887, 28.516916) rotate(-30.000000) translate(-38.542887, -28.516916) "></path>
                    <path d="M68.5161374,61.845297 C72.0208921,56.9214687 73.7732694,51.4226295 73.7732694,45.3487795 C73.7732694,36.2380044 71.4195712,28.852262 68.5161374,28.852262 C65.6127036,28.852262 63.2590055,36.2380044 63.2590055,45.3487795 C63.2590055,51.4226295 65.0113828,56.9214687 68.5161374,61.845297 Z" id="leaf" fill="#A6A4A4" transform="translate(68.516137, 45.348779) rotate(88.000000) translate(-68.516137, -45.348779) "></path>
                    <path d="M58.7269952,85.7743114 C62.2317498,80.8504831 63.9841271,75.3516439 63.9841271,69.2777939 C63.9841271,60.1670188 61.630429,52.7812764 58.7269952,52.7812764 C55.8235614,52.7812764 53.4698632,60.1670188 53.4698632,69.2777939 C53.4698632,75.3516439 55.2222405,80.8504831 58.7269952,85.7743114 Z" id="leaf" fill="#A6A4A4" transform="translate(58.726995, 69.277794) rotate(91.000000) translate(-58.726995, -69.277794) "></path>
                    <path d="M50.749854,108.979205 C54.2546086,104.055376 56.006986,98.5565373 56.006986,92.4826873 C56.006986,83.3719123 53.6532878,75.9861698 50.749854,75.9861698 C47.8464202,75.9861698 45.4927221,83.3719123 45.4927221,92.4826873 C45.4927221,98.5565373 47.2450994,104.055376 50.749854,108.979205 Z" id="leaf" fill="#A6A4A4" transform="translate(50.749854, 92.482687) rotate(91.000000) translate(-50.749854, -92.482687) "></path>
                    <path d="M66.9797852,33.473405 C70.4845399,28.5495767 72.2369172,23.0507375 72.2369172,16.9768875 C72.2369172,7.86611241 69.8832191,0.480369949 66.9797852,0.480369949 C64.0763514,0.480369949 61.7226533,7.86611241 61.7226533,16.9768875 C61.7226533,23.0507375 63.4750306,28.5495767 66.9797852,33.473405 Z" id="leaf" fill="#A6A4A4" transform="translate(66.979785, 16.976887) rotate(33.000000) translate(-66.979785, -16.976887) "></path>
                    <path d="M25.5000483,70.327727 C29.0048029,65.4038987 30.7571802,59.9050595 30.7571802,53.8312095 C30.7571802,44.7204344 28.4034821,37.334692 25.5000483,37.334692 C22.5966144,37.334692 20.2429163,44.7204344 20.2429163,53.8312095 C20.2429163,59.9050595 21.9952936,65.4038987 25.5000483,70.327727 Z" id="leaf" fill="#A6A4A4" transform="translate(25.500048, 53.831209) rotate(-41.000000) translate(-25.500048, -53.831209) "></path>
                    <path d="M15.710906,95.7069847 C19.2156606,90.7831564 20.9680379,85.2843172 20.9680379,79.2104672 C20.9680379,70.0996921 18.6143398,62.7139497 15.710906,62.7139497 C12.8074722,62.7139497 10.453774,70.0996921 10.453774,79.2104672 C10.453774,85.2843172 12.2061514,90.7831564 15.710906,95.7069847 Z" id="leaf" fill="#A6A4A4" transform="translate(15.710906, 79.210467) rotate(-47.000000) translate(-15.710906, -79.210467) "></path>
                </g>
                <g id="window-reflactions" transform="translate(213.004484, 62.331839)" opacity="0.472712054" stroke="url(#linearGradient-2)" stroke-linecap="round" stroke-linejoin="round" stroke-width="8">
                    <path d="M0.224215247,35.2017937 L45.7407241,0.371769554" id="Line"></path>
                    <path d="M0.67264574,52.690583 L36.5737429,25.218439" id="Line-Copy"></path>
                    <path d="M157.623318,75.1121076 L203.139827,40.2820835" id="Line-Copy-3"></path>
                    <path d="M158.071749,92.6008969 L193.972846,65.1287529" id="Line-Copy-2"></path>
                </g>
                <g id="guy-on-chair" transform="translate(372.197309, 116.591928)">
                    <path d="M168.071831,73.8623991 L67.8467318,55.1569731 C38.7611139,97.7759865 24.9975587,133.718363 26.5562193,162.983812 C44.9326022,170.600471 80.3098996,182.653744 132.687958,199.143778 L174.832347,85.8044731 C176.558755,81.1619283 174.194692,75.9988004 169.552199,74.2725112 C169.071435,74.0935426 168.575838,73.9564013 168.071831,73.8623991 Z" id="" fill="url(#linearGradient-3)"></path>
                    <g id="neck" transform="translate(39.013453, 52.914798)">
                        <mask id="mask-5" fill="white">
                            <use xlink:href="#path-4"></use>
                        </mask>
                        <use id="" fill="#C8C8C8" xlink:href="#path-4"></use>
                        <path d="M54.1392809,40.0523301 C45.5950682,24.8890566 39.3275097,15.4048003 35.3366054,11.5995613 C31.345701,7.79432231 40.8669101,3.97376142 63.9002326,0.13787862 L54.1392809,44.3460673 L54.1392809,40.0523301 Z" id="Path-3" fill="#B1B1B1" style="mix-blend-mode: multiply;" mask="url(#mask-5)"></path>
                    </g>
                    <path d="M60.8771861,26.0730368 C57.7845291,28.1556664 60.4229821,36.5371695 57.0751121,41.3217471 C55.2447309,43.937704 51.3946749,45.3923552 49.6169283,46.4334565 C44.5877242,49.3787408 49.7558296,51.4810691 50.7951233,53.2341274 C51.8345291,54.9871857 51.0059978,58.947774 50.2276906,62.0692484 C49.4494955,65.1907229 46.6882287,72.2245453 49.6487108,73.7962296 C52.6091368,75.3679139 70.7857623,82.2299982 76.0418161,80.1340735 C81.29787,78.0381489 83.1772422,67.5388269 84.4727018,66.8558386 C85.7682735,66.1727283 86.678139,66.8936502 87.8741031,67.1919354 C90.9871076,67.9681112 93.7983184,66.2233471 95.2947309,63.7400969 C96.9893498,60.9278852 99.3987668,62.2112861 98.0960202,58.3682188 C96.0862108,52.4398386 84.4377803,29.0889435 79.8095291,27.4102888 C75.181278,25.7315731 65.6606502,22.8516664 60.8771861,26.0730368 Z" id="" fill="#C8C8C8"></path>
                    <path d="M75.9754143,32.4887892 C64.1386843,29.5375283 58.6343583,32.18127 54.3483525,22.9818475 C51.8168543,17.5484843 56.7459027,0.880559641 65.0467224,0.503400897 C67.0893632,9.82023677 76.9574798,10.6213381 82.6754502,11.3954583 C113.376763,15.5519605 116.589339,43.623017 107.398279,60.1577686 C104.439097,65.4809794 101.701469,69.3061166 99.2592915,72.1736287 C97.7090677,73.9942386 95.6825771,76.1873865 94.9982691,77.2284305 C94.7695951,77.5757202 92.7893139,81.9600359 92.4467314,81.8746368 C91.4121942,81.6167892 91.8274197,81.5646422 92.3350641,77.0266081 C92.84317,72.4886565 93.126557,71.2674906 94.0471857,67.5748664 C94.3189709,66.4842332 99.4673327,58.1066224 95.5135601,55.0733453 C92.8781072,53.0511605 89.3171475,54.2862709 84.8314722,58.7786762 L82.1072919,57.7524018 C83.9072839,53.7507731 85.0444574,50.7965417 85.5202628,48.8899552 C86.2333117,46.0299516 87.8122103,35.4401327 75.9754143,32.4887892 Z" id="" fill="#000000"></path>
                    <path d="M82.1113004,57.8891368 C81.207713,59.9026009 77.798296,64.5443274 74.7216143,66.2208632 C71.6444843,67.8974664 65.1633184,67.9999103 63.833722,66.0885538 C62.5041256,64.1771973 56.4651121,55.5189686 51.0221076,54.1618386 C50.7488789,55.2576794 50.003139,57.1217489 48.7849327,59.754148 C52.9976233,61.505583 55.4443946,63.1530605 56.125157,64.6965807 C57.146278,67.011861 57.6947982,65.4606054 56.6749327,66.4893834 C55.6550673,67.5181614 50.3297309,66.7272309 49.9254709,62.7122758 C48.3891928,65.9094283 46.7390135,74.5391031 47.3207623,76.5108296 C47.9024664,78.4826233 51.2510762,79.3868274 54.5557399,79.5990471 C57.8603587,79.8111996 69.6346188,81.6082063 72.6332735,80.9952915 C75.6323767,80.3823767 79.4417937,80.735213 81.9507623,73.47 C84.4597309,66.2047197 83.9018834,61.4977803 87.1758744,55.3098767 C90.4498655,49.1219731 83.0144395,55.875639 82.1113004,57.8891368 Z" id="" fill="#000000"></path>
                    <g id="shirt" transform="translate(0.000000, 86.098655)">
                        <mask id="mask-8" fill="white">
                            <use xlink:href="#path-7"></use>
                        </mask>
                        <g id="">
                            <use fill="#3D82F0" fill-rule="evenodd" xlink:href="#path-7"></use>
                            <use fill="url(#linearGradient-6)" fill-rule="evenodd" xlink:href="#path-7"></use>
                            <use fill="black" fill-opacity="1" filter="url(#filter-9)" xlink:href="#path-7"></use>
                        </g>
                        <path d="M60.2304765,2.47739725 C49.9287518,13.0224698 70.2509993,18.6411008 78.5491602,15.8317853 C84.0812675,13.9589083 89.9513579,9.50744561 96.1594314,2.47739725 C80.5166725,-9.1636418 70.6178236,-12.0739016 66.4628848,-6.25338204 C60.2304765,2.47739725 70.5322012,-8.06767529 60.2304765,2.47739725 Z" id="Path-6" fill="url(#linearGradient-10)" style="mix-blend-mode: multiply;" opacity="0.585435268" mask="url(#mask-8)"></path>
                        <path d="M45.5488738,97.8838204 C52.8848234,97.8838204 100.579776,89.9857364 100.579776,83.5747707 C100.579776,79.3007936 99.3539841,62.108376 96.9024007,31.997518" id="Path-8" fill="url(#linearGradient-11)" style="mix-blend-mode: multiply;" opacity="0.546540179" mask="url(#mask-8)"></path>
                        <path d="M-21.269055,70.0791166 C-17.9466512,70.0791166 -2.58529818,89.5404151 11.4489916,82.9900756 C28.4027595,75.077104 38.2749659,45.7782252 38.2749659,42.2707442 C38.2749659,39.5874657 42.7261012,30.0718152 41.0311171,19.7038804 C40.3612378,15.6063407 37.2923719,9.10638611 31.8245192,0.204016507" id="Path-8-Copy" fill="url(#linearGradient-11)" style="mix-blend-mode: multiply;" opacity="0.546540179" mask="url(#mask-8)"></path>
                    </g>
                </g>
                <g id="guy-standin" transform="translate(233.183857, 0.000000)">
                    <path d="M61.9206166,60.5913632 C63.7258906,74.3488318 64.0718964,82.3543924 62.9586341,84.6080448 C61.2887229,87.9886143 64.5230821,103.891372 74.821848,104.813368 C85.1206139,105.735303 90.5195377,101.347076 90.9243861,90.6175426 C91.3292345,79.888009 91.9741296,75.7514395 93.6373099,71.0035561 C95.3004901,66.2556121 64.3043973,46.5849013 62.9586341,50.2214865 C62.0613641,52.645917 61.7154291,56.102583 61.9206166,60.5913632 Z" id="" fill="#B2B2B2"></path>
                    <path d="M104.250317,28.9855117 C104.250317,32.0444206 104.656581,41.5936892 104.349259,44.0134901 C104.041937,46.4333525 103.797295,50.0393399 104.073277,54.6978928 C104.349259,59.3565072 101.930009,70.8143148 99.229252,74.9653534 C97.6168036,77.4437018 91.2256717,82.2216229 84.9565345,81.5503843 C77.5246063,80.754617 69.3983785,73.5782744 68.5290978,69.9899188 C66.9265937,63.3746004 68.2544717,57.5368646 63.6364556,54.0215552 C59.0184395,50.5062457 55.6531659,47.2410381 56.0683695,41.8141179 C56.4835731,36.3872592 61.2258439,23.4683435 63.6364556,22.9254426 C66.0470673,22.3826031 104.250317,25.9266641 104.250317,28.9855117 Z" id="" fill="#C8C8C8"></path>
                    <path d="M64.5770027,25.0798637 C66.7685946,28.3865543 85.9546049,44.326913 105.184447,33.9779229 C124.414134,23.6289937 98.8341834,4.84166099 87.2346498,2.6982278 C75.6351161,0.554855605 65.6460341,1.7462278 58.6299143,11.4818152 C51.6137946,21.2174637 48.0942143,37.903017 61.820174,60.538113 C62.4243552,56.9462493 62.7265233,54.5525274 62.7265233,53.3570691 C57.264378,48.3594655 55.8988417,43.7023498 58.6299143,39.385722 C62.7265233,32.9107803 64.0816641,45.6059229 64.5770027,47.645313 C66.2076247,47.645313 67.2339103,47.3610547 67.6559372,46.7924161 C66.5321354,43.5883049 66.1223659,40.6251516 66.4266287,37.903017 C66.8829453,33.8197238 68.2314143,32.9107803 64.5770027,25.0798637 Z" id="" fill="#000000"></path>
                    <path d="M27.9667958,263.776702 C27.9667958,258.787952 22.1878486,226.111903 34.0988734,216.294823 C46.0098982,206.477744 60.7430785,220.798949 115.00486,222.968791 C115.898351,244.914346 115.898351,260.36418 115.00486,269.318295 C114.111453,278.272409 81.3350863,290.965781 27.9667958,263.776702 Z" id="" fill="#3D82F0"></path>
                    <path d="M18.7694018,221.460212 C20.0487381,227.1276 24.2822439,233.181817 25.7083883,234.489338 C27.1345121,235.7968 32.3229821,237.417358 33.3040197,237.102669 C34.2850574,236.788009 36.8666269,234.630098 36.9834628,232.104589 C37.1003193,229.579079 34.6238691,228.156216 34.6068099,224.424526 C34.5897713,220.692866 28.3836493,215.280228 28.3836493,211.97887 C28.3836493,208.677543 17.4900861,215.792793 18.7694018,221.460212 Z" id="" fill="#B2B2B2"></path>
                    <path d="M178.275204,213.684612 C182.124043,218.79018 184.629919,219.683539 186.072576,221.206027 C187.515202,222.728515 190.816651,228.103629 192.042561,227.207756 C193.268533,226.311914 194.538133,224.54723 192.630422,221.206027 C190.722681,217.864888 187.833654,214.340868 188.836536,212.5723 C189.839481,210.803795 194.734922,205.576316 198.821146,204.362726 C202.907245,203.149103 204.264689,203.932969 204.67182,203.280915 C205.079013,202.628988 199.785289,201.68246 197.604023,201.43778 C195.422571,201.193101 192.331402,200.912253 187.874342,201.43778 C184.902948,201.788132 182.833134,200.552891 181.664868,197.732153 C176.839231,204.963456 175.709302,210.28091 178.275204,213.684612 Z" id="" fill="#B2B2B2"></path>
                    <g id="shirt" transform="translate(0.000000, 85.201794)">
                        <mask id="mask-13" fill="white">
                            <use xlink:href="#path-12"></use>
                        </mask>
                        <use id="" fill="#000000" xlink:href="#path-12"></use>
                        <path d="M31.6529151,59.2287369 L37.5970218,35 C39.0649185,87.381401 36.5225722,122.644284 29.969983,140.788649 C28.238077,109.30653 29.2022865,92.8518761 29.969983,79.0948909 C30.3060705,73.0722618 30.8670479,66.4502104 31.6529151,59.2287369 Z" id="Path-4" fill="#2A2A2A" mask="url(#mask-13)"></path>
                    </g>
                    <path d="M63.3503175,73.9824215 C63.3503175,77.3616256 68.489148,86.8074888 78.4125238,86.4480942 C88.3358673,86.0887668 90.3320108,85.8154709 91.4597309,80.7768498 C91.4597309,88.2418386 91.8463354,90.4453924 90.0162439,95.3681166 C88.1860879,100.29074 76.7799964,102.989765 70.3827157,98.9007511 C63.9853704,94.8117377 60.6515121,92.363778 61.5873507,84.8987892 C62.5231892,77.4337332 63.3503175,70.6031839 63.3503175,73.9824215 Z" id="" fill="#404040"></path>
                </g>
                <g id="girl-and-desk" transform="translate(0.000000, 41.255605)">
                    <path d="M71.4796744,136.33703 L162.479297,114.349825 C179.309267,159.726857 186.944917,197.048078 185.386248,226.313632 C167.009824,233.930231 139.445439,243.805629 102.692966,255.939682 L65.1159677,148.003494 C63.4874861,143.325614 65.9594422,138.213372 70.6371973,136.584727 C70.913826,136.488472 71.1949426,136.405763 71.4796744,136.33703 Z" id="chair" fill="url(#linearGradient-14)"></path>
                    <path d="M175.063647,120.488316 C173.115354,126.658893 179.444518,144.080746 189.499352,152.594294 C199.554255,161.107842 167.213869,159.660352 167.194886,150.168508 C167.175937,140.676664 177.011837,114.317835 175.063647,120.488316 Z" id="hair" fill="#1C1C1C"></path>
                    <g id="arm">
                        <use fill="#3D82F0" fill-rule="evenodd" xlink:href="#path-15"></use>
                        <use fill="url(#linearGradient-6)" fill-rule="evenodd" xlink:href="#path-15"></use>
                        <use fill="black" fill-opacity="1" filter="url(#filter-16)" xlink:href="#path-15"></use>
                    </g>
                    <g id="shirt">
                        <use fill="#3D82F0" fill-rule="evenodd" xlink:href="#path-17"></use>
                        <use fill="url(#linearGradient-6)" fill-rule="evenodd" xlink:href="#path-17"></use>
                        <use fill="black" fill-opacity="1" filter="url(#filter-18)" xlink:href="#path-17"></use>
                    </g>
                    <path d="M0,257.472322 L226.63452,210.160686 C259.076115,203.388262 310.686906,206.893647 341.909014,217.989674 L550.521847,292.128599 C591.730336,306.773686 590.286715,325.107409 547.272951,333.082655 L500.106894,341.827783 C457.104089,349.800997 386.788466,356.264564 343.054988,356.264564 L79.1884401,356.264564 C35.4538723,356.264564 0,320.807619 0,277.079055 L0,257.472322 Z" id="desk-top" fill="url(#linearGradient-19)"></path>
                    <polyline id="shadow" fill="url(#linearGradient-20)" opacity="0.196930804" style="mix-blend-mode: multiply;" points="199.373938 267.079699 309.149404 249.33681 392.672838 285.931272 271.755106 318.00785"></polyline>
                    <g id="neck" transform="translate(149.775785, 110.762332)">
                        <mask id="mask-22" fill="white">
                            <use xlink:href="#path-21"></use>
                        </mask>
                        <use id="" fill="#C8C8C8" xlink:href="#path-21"></use>
                        <path d="M-0.980707629,36.1379745 C15.7888199,22.0871524 26.1086496,15.0617414 29.9787813,15.0617414 C33.8489131,15.0617414 23.5290834,12.7063281 -0.980707629,7.9955016 L-0.980707629,36.1379745 Z" id="Path" fill="#D6D6D6" style="mix-blend-mode: multiply;" opacity="0.717131696" mask="url(#mask-22)"></path>
                    </g>
                    <path d="M177.748565,79.9061848 C179.228698,84.5800502 179.063017,89.7632108 181.934945,94.2266457 C184.806777,98.6900215 188.590457,102.588283 189.595439,104.57148 C190.600517,106.554676 185.564617,108.316551 185.564617,110.089968 C185.564617,111.863444 188.920657,124.203254 187.124757,125.382493 C186.101324,128.138274 167.254549,131.958165 162.495672,129.221562 C158.30038,129.221562 151.834474,125.540893 147.866612,116.496407 C143.89875,107.45198 143.715779,85.4893704 147.866612,79.9061848 C152.017444,74.3230583 176.268481,75.2323785 177.748565,79.9061848 Z" id="face" fill="#C8C8C8"></path>
                    <g id="document" transform="translate(206.278027, 204.932735)">
                        <mask id="mask-25" fill="white">
                            <use xlink:href="#path-24"></use>
                        </mask>
                        <use id="" fill="url(#linearGradient-23)" xlink:href="#path-24"></use>
                        <polygon id="Path-2" fill="url(#linearGradient-26)" opacity="0.458035714" style="mix-blend-mode: multiply;" mask="url(#mask-25)" points="89.9479798 39.8792728 78.7864261 -0.44346223 96.7671267 -0.44346223"></polygon>
                        <path d="M10.4056865,30.0939863 C10.4056865,33.3116281 18.1529951,37.981525 27.2615793,42.0694033 C32.5428362,44.4395999 31.8148827,49.9418557 34.1131726,49.9418557 C38.2879398,49.9418557 25.5536381,55.966467 -4.08973249,68.0156895 C-5.69736254,51.7221102 -5.69736254,41.4492267 -4.08973249,37.197039 C-1.46181136,30.2461775 10.4056865,28.3267771 10.4056865,30.0939863 Z" id="Path-7" fill="url(#linearGradient-27)" opacity="0.528404018" style="mix-blend-mode: multiply;" mask="url(#mask-25)"></path>
                    </g>
                    <path d="M200.17325,237.863179 C202.776674,237.863179 205.929252,236.486063 210.53334,235.433928 C215.137519,234.381794 218.041363,232.709484 219.454909,234.265179 C220.00731,234.872955 219.085697,236.352466 218.412131,236.756175 C217.738519,237.159852 217.381474,237.753345 214.166187,238.942184 C211.182435,240.04539 209.454701,240.56157 209.994021,241.589439 C210.53334,242.617341 215.421518,243.511834 216.987241,243.926435 C218.985206,244.455453 221.990318,245.487341 224.855878,245.968552 C228.058404,246.506359 231.59698,246.566063 232.003654,246.80083 C232.774051,247.245691 233.900625,248.919444 232.003654,249.453516 C231.555448,249.579673 228.314456,249.644807 224.37259,249.453516 C220.163192,249.249197 216.303292,248.442439 216.987241,249.453516 C217.149435,249.693211 221.031198,250.485058 225.295027,250.485058 C227.821791,250.485058 232.93533,250.799399 233.258803,250.799399 C234.428098,250.799399 235.014987,252.398256 233.954324,253.185049 C233.706825,253.368713 228.772632,253.927175 224.855878,254.071318 C220.347524,254.237215 216.357677,253.82883 216.310474,254.071318 C216.276031,254.24817 221.024795,254.845493 225.295027,254.642242 C228.750174,254.477695 230.649981,254.207363 231.295829,254.642242 C231.941768,255.077027 231.77811,256.238776 231.295829,256.76161 C231.095305,256.978987 227.973099,257.971825 224.855878,258.178341 C220.478111,258.468386 215.721664,257.961592 215.679583,258.178341 C215.56784,258.753283 223.657492,259.117596 224.855878,259.117596 C226.562114,259.117596 226.347091,261.324103 224.37259,261.791408 C221.89582,262.377587 216.771578,262.330942 214.439391,262.330942 C212.10725,262.330942 208.602796,261.791408 205.096191,260.489439 C201.589587,259.187439 196.907283,257.443812 193.939312,256.76161 C190.731755,256.024318 193.035126,245.883453 195.255981,240.562543 C197.476837,235.241632 197.569826,237.863179 200.17325,237.863179 Z" id="hand" fill="#C8C8C8"></path>
                    <g id="arm">
                        <use fill="#3D82F0" fill-rule="evenodd" xlink:href="#path-28"></use>
                        <use fill="url(#linearGradient-6)" fill-rule="evenodd" xlink:href="#path-28"></use>
                        <use fill="black" fill-opacity="1" filter="url(#filter-29)" xlink:href="#path-28"></use>
                    </g>
                    <g id="glasses" transform="translate(147.533632, 83.856502)">
                        <polygon id="" fill="#1C1C1C" points="23.0953879 13.5230637 0.709919283 17.7404843 0.709919283 19.4158278 23.8922713 17.6511498"></polygon>
                        <path d="M29.0548592,22.2872287 C26.4703964,22.5588879 24.0255695,19.4821525 23.5987139,15.420843 C23.1718583,11.3595157 24.9235534,7.84175785 27.5080161,7.57011659 C30.0924789,7.29843946 32.5373058,10.3751749 32.9641614,14.4364843 C33.391017,18.4978117 31.639322,22.0156054 29.0548592,22.2872287 Z" id="" stroke="#1C1C1C" stroke-width="4" fill-opacity="0" fill="#000000"></path>
                        <path d="M41.5372036,15.0521807 C39.1988942,15.297957 36.9869004,12.5142296 36.6006897,8.83973139 C36.2145139,5.16518341 37.7993596,1.98243677 40.1377157,1.73666054 C42.4760251,1.4909009 44.6880188,4.27459507 45.0741946,7.94910987 C45.4604054,11.6236081 43.8755247,14.8063879 41.5372036,15.0521807 Z" id="" stroke="#1C1C1C" stroke-width="4" fill-opacity="0" fill="#000000"></path>
                        <path d="M32.4941561,13.0186915 C32.4941561,11.9942561 35.3861166,9.98537982 36.8368143,10.9964574" id="" stroke="#1C1C1C" stroke-width="4" fill-opacity="0" fill="#000000"></path>
                    </g>
                    <path d="M149.421202,82.0344538 C155.618637,86.8265543 170.038535,88.2318135 179.853754,83.602052 C189.669069,78.9722906 192.064194,60.0171767 179.853754,54.1851767 C175.209528,51.9670601 165.985247,53.4029274 167.264567,60.0896287 C156.581573,55.9587013 144.964734,59.5762655 140.358725,62.3317668 C133.182192,66.6252269 127.588339,71.3032251 124.647053,81.1377148 C121.705767,90.9720108 126.507709,100.752258 124.144432,105.760552 C121.781155,110.768653 114.818999,115.116936 118.541263,130.507372 C122.263431,145.897614 113.319313,143.435214 111.303031,152.822981 C109.286655,162.210554 115.709019,166.6896 111.303031,172.944883 C106.896949,179.199971 98.4504126,205.607763 114.270746,219.751017 C130.090985,233.894465 159.571343,244.198924 166.270448,213.752804 C172.969648,183.306683 141.544784,176.659889 150.766594,161.434891 C159.988309,146.210088 153.879381,132.09473 155.809722,127.741797 C158.184597,122.386353 155.631186,114.214192 151.1211,103.139107 C146.943939,92.8813345 152.957419,90.142687 149.421202,82.0344538 Z" id="hair" fill="#000000"></path>
                    <g id="documents" transform="translate(204.035874, 276.681614)" fill="url(#linearGradient-30)">
                        <path d="M0.421509417,20.1171992 L60.0897471,9.86546577 C93.0244036,30.4469942 109.16443,40.803747 108.509938,40.9358582 C107.578889,41.1237148 41.6922565,52.6448308 37.2415318,53.8390081 C37.6580771,52.77596 25.381574,41.5323666 0.421509417,20.1171992 Z" id=""></path>
                        <polygon id="" points="35.847476 4.19573699 98.2027229 0 132.482504 29.9508874 54.7971053 35.3102146"></polygon>
                    </g>
                    <g id="laptop" transform="translate(289.237668, 176.233184)">
                        <path d="M103.704273,109.126637 L160.334661,86.5772915 C161.48488,86.1192466 162.046205,84.8152287 161.587965,83.6647354 C161.350267,83.067157 160.866952,82.6005561 160.261489,82.3835336 L88.1537368,56.5395695 L17.020239,74.12 L103.704273,109.126637 Z" id="" fill="#393636"></path>
                        <path d="M4.41216143,0.888701794 L84.3143139,26.7451009 C86.6653166,27.5058094 88.4097901,29.4942646 88.8581848,31.9242691 L103.155107,109.40865 L16.5718744,74.2850987 L0.957338117,4.03228251 C0.634930942,2.5817287 1.54951031,1.14446861 3.00008251,0.822013453 C3.46834798,0.717970852 3.95586009,0.740932735 4.41216143,0.888701794 Z" id="" fill="#1E1E1E"></path>
                        <path d="M44.494226,57.9955529 C48.6122574,60.004039 52.9542861,60.0001233 54.7457076,56.3273009 C56.537026,52.6544287 53.3055982,48.4972547 49.1875668,46.4887188 C45.0695354,44.4801996 41.1759139,44.4841816 39.3845543,48.1569874 C37.593174,51.829843 40.3761946,55.9870336 44.494226,57.9955529 Z" id="" fill="#FFFFFF"></path>
                    </g>
                    <g id="glasses" transform="translate(295.515695, 0.000000)">
                        <path d="M11.0526274,11.0367904 C11.0322798,7.19890334 14.1181785,4.06975071 17.9660306,4.04751184 L18.6943461,4.04330251 C22.5328609,4.0211176 25.5909258,7.111113 25.5245872,10.952992 L25.5865339,7.36545913 C25.5202571,11.2037602 22.360214,14.2758835 18.5208193,14.2271427 L18.0147502,14.2207182 C14.1787406,14.1720204 11.0525547,11.0230766 11.0321977,7.18343382 L11.0526274,11.0367904 Z" id="" stroke="#1C1C1C" stroke-width="5"></path>
                        <path d="M34.8002278,10.9911072 C34.7580838,7.15474985 37.8356168,4.04600604 41.6694254,4.04753175 L41.1222558,4.04731399 C44.9581529,4.04884053 48.0377536,7.17039162 48.0009602,10.9962268 L48.0354434,7.41060907 C47.9985498,11.2468611 44.8559677,14.2925034 41.0168303,14.2132527 L41.7860338,14.2291312 C37.9466544,14.1498755 34.8000772,10.9773989 34.7579139,7.13928649 L34.8002278,10.9911072 Z" id="" stroke="#1C1C1C" stroke-width="5"></path>
                        <path d="M25.5404413,8.52017937 L34.5090386,8.52017937" id="" stroke="#1C1C1C" stroke-width="4" fill-opacity="0" fill="#000000"></path>
                        <polygon id="" fill="#1C1C1C" points="0.786636771 0.888408969 11.7143713 6.19641525 11.7143713 11.394 1.82349058 4.49276368"></polygon>
                    </g>
                    <path d="M185.754228,113.387965 C186.194597,113.161123 186.056119,114.164836 186.24769,114.753948 C186.439233,115.343059 186.569668,115.435765 186.632715,115.819931 C184.806356,116.760663 181.62769,116.946178 179.49926,115.686994 C179.072988,115.434808 178.700507,115.228052 179.053749,114.880808 C179.406954,114.533538 179.847078,114.751131 180.322046,114.891674 C181.979652,115.382008 184.616169,113.974176 185.754228,113.387965 Z" id="mouth" fill="#1C1C1C"></path>
                    <g id="Plant" transform="translate(76.233184, 200.448430)">
                        <g id="Pot" transform="translate(17.937220, 80.269058)">
                            <path d="M27.3542623,34.5291444 C42.2139309,34.5291444 54.2600987,37.1391587 54.2600987,40.3587444 C54.2600987,43.57833 42.2139309,46.1883444 27.3542623,46.1883444 C12.4945937,46.1883444 0.448426009,43.57833 0.448426009,40.3587444 C0.448426009,37.1391587 12.4945937,34.5291444 27.3542623,34.5291444 Z" id="shadow" fill="url(#linearGradient-31)" opacity="0.7"></path>
                            <g id="pot" transform="translate(1.345291, 4.932735)">
                                <mask id="mask-34" fill="white">
                                    <use xlink:href="#path-33"></use>
                                </mask>
                                <use id="Ellipse-2" fill="url(#linearGradient-32)" xlink:href="#path-33"></use>
                            </g>
                            <g id="inside" transform="translate(4.035874, 0.000000)">
                                <mask id="mask-37" fill="white">
                                    <use xlink:href="#path-36"></use>
                                </mask>
                                <use id="Ellipse-1" fill="url(#linearGradient-35)" xlink:href="#path-36"></use>
                            </g>
                        </g>
                        <g id="leaves">
                            <g id="leaf">
                                <g transform="translate(21.076233, 0.000000)">
                                    <g id="Shape-2">
                                        <mask id="mask-40" fill="white">
                                            <use xlink:href="#path-39"></use>
                                        </mask>
                                        <g>
                                            <use fill="url(#linearGradient-38)" fill-rule="evenodd" xlink:href="#path-39"></use>
                                            <use fill="black" fill-opacity="1" filter="url(#filter-41)" xlink:href="#path-39"></use>
                                        </g>
                                        <path d="M26.9557106,69.1260928 L18.9867311,31.4152511 C24.1831391,41.9860029 26.6442798,53.6754641 26.9557106,69.1260928 Z M18.9867311,31.4152511 L17.0206627,22.1114131 L14.2994374,23.2451909 C16.0588578,25.9231152 17.6177214,28.6303694 18.9867356,31.4152725 Z M26.9557106,69.1260928 C27.0393714,73.2766522 26.9679004,77.6986328 26.7526489,82.4432601 L29.7186977,82.2011131 L26.9557106,69.1260928 Z" id="Shape-3" stroke="#489C71" stroke-width="3" fill-opacity="0" fill="#000000" opacity="0.5" style="mix-blend-mode: multiply;" mask="url(#mask-40)"></path>
                                    </g>
                                </g>
                                <g transform="translate(0.000000, 39.910314)">
                                    <g id="Shape-2">
                                        <mask id="mask-44" fill="white">
                                            <use xlink:href="#path-43"></use>
                                        </mask>
                                        <g>
                                            <use fill="url(#linearGradient-42)" fill-rule="evenodd" xlink:href="#path-43"></use>
                                            <use fill="black" fill-opacity="1" filter="url(#filter-45)" xlink:href="#path-43"></use>
                                        </g>
                                        <path d="M42.5588459,41.948787 L26.700666,19.89927 C32.8778399,25.4919143 37.8887546,32.4660718 42.5588459,41.948787 Z M26.700666,19.89927 L20.8113015,11.7105848 L18.7787046,13.8457867 C21.6355234,15.6941914 24.2591889,17.6888234 26.700666,19.89927 Z M42.5588459,41.948787 C44.4379863,45.7644198 46.2619448,49.9862075 48.0844968,54.687575 L50.7008405,53.2695723 L42.5588459,41.948787 Z" id="Shape-3" stroke="#489C71" stroke-width="3" fill-opacity="0" fill="#000000" opacity="0.5" style="mix-blend-mode: multiply;" mask="url(#mask-44)"></path>
                                    </g>
                                </g>
                                <g transform="translate(51.569507, 34.977578)">
                                    <g id="Shape-2">
                                        <mask id="mask-47" fill="white">
                                            <use xlink:href="#path-46"></use>
                                        </mask>
                                        <g>
                                            <use fill="url(#linearGradient-38)" fill-rule="evenodd" xlink:href="#path-46"></use>
                                            <use fill="black" fill-opacity="1" filter="url(#filter-48)" xlink:href="#path-46"></use>
                                        </g>
                                        <path d="M5.95880877,47.0353336 C9.39469836,36.9238111 13.5009514,29.2957044 18.9643862,22.9026032 L5.95880877,47.0353336 Z M18.9643862,22.9026032 C21.0979537,20.4059847 23.4384969,18.0977094 26.0269195,15.9034277 L23.7365014,14.0476201 L18.9643862,22.9026032 Z M5.95880877,47.0353336 L-0.642034003,59.2836448 L2.13528014,60.3524183 C3.3325963,55.4684969 4.59271643,51.0556239 5.95880877,47.0353336 Z" id="Shape-3" stroke="#489C71" stroke-width="3" fill-opacity="0" fill="#000000" opacity="0.5" style="mix-blend-mode: multiply;" mask="url(#mask-47)"></path>
                                    </g>
                                </g>
                            </g>
                        </g>
                    </g>
                </g>
            </g>
        </g>
    </g>
</svg>